<?xml version="1.0" standalone="no"?>
<!DOCTYPE svg PUBLIC "-//W3C//DTD SVG 20010904//EN"
 "http://www.w3.org/TR/2001/REC-SVG-20010904/DTD/svg10.dtd">
<svg version="1.0" xmlns="http://www.w3.org/2000/svg"
 width="1178.000000pt" height="1178.000000pt" viewBox="0 0 1178.000000 1178.000000"
 preserveAspectRatio="xMidYMid meet">
<metadata>
Created by potrace 1.14, written by Peter Selinger 2001-2017
</metadata>
<g transform="translate(0.000000,1178.000000) scale(0.100000,-0.100000)"
fill="#000000" stroke="none">
<path d="M2115 7830 c3 -5 -28 -7 -152 -13 -19 -1 -28 -6 -23 -12 5 -6 -10
-10 -43 -10 -34 0 -57 -5 -65 -15 -8 -8 -11 -9 -7 -2 3 6 1 12 -4 12 -6 0 -11
-4 -11 -10 0 -5 -16 -10 -36 -10 -24 0 -33 -4 -28 -12 5 -7 2 -9 -9 -5 -8 3
-21 0 -27 -8 -6 -7 -20 -10 -32 -7 -13 3 -19 1 -15 -5 4 -6 -7 -9 -28 -8 -19
1 -32 -2 -29 -6 7 -12 -12 -19 -50 -21 -24 -1 -33 -5 -29 -15 3 -7 0 -13 -6
-13 -6 0 -11 5 -11 12 0 6 -7 3 -16 -8 -8 -10 -13 -12 -9 -4 4 9 1 8 -8 -3 -8
-10 -21 -16 -28 -15 -8 2 -13 -3 -11 -10 1 -6 -1 -11 -5 -11 -21 3 -56 -2 -50
-7 3 -4 -10 -15 -30 -25 -20 -10 -39 -17 -41 -14 -2 2 -14 -6 -26 -19 -16 -17
-18 -17 -6 -2 14 20 14 20 -5 6 -11 -8 -29 -25 -41 -37 -12 -13 -27 -23 -33
-23 -7 0 -19 -7 -28 -15 -8 -8 -20 -12 -26 -8 -9 5 -9 3 0 -8 10 -13 8 -15
-15 -15 -16 1 -26 -4 -25 -11 2 -7 -5 -13 -15 -13 -15 0 -15 -2 -2 -11 12 -9
11 -10 -7 -6 -12 3 -22 2 -21 -2 2 -16 -3 -31 -9 -30 -20 3 -34 -2 -28 -11 3
-5 -4 -10 -15 -10 -15 0 -20 -5 -17 -14 4 -9 -5 -19 -24 -26 -16 -7 -26 -17
-22 -23 4 -6 0 -8 -10 -4 -11 4 -17 1 -17 -8 0 -8 -4 -15 -10 -15 -5 0 -10 -7
-10 -15 0 -8 -7 -15 -16 -15 -8 0 -12 -4 -9 -10 3 -5 -3 -10 -14 -10 -15 0
-19 -4 -14 -17 4 -10 2 -14 -4 -10 -6 4 -13 -3 -16 -14 -3 -12 -10 -18 -16
-14 -6 3 -11 -1 -11 -10 0 -10 -5 -13 -12 -9 -7 4 -8 3 -4 -4 4 -7 -7 -25 -24
-42 -18 -17 -28 -35 -24 -42 5 -8 2 -9 -9 -5 -11 4 -17 1 -17 -8 0 -8 -4 -15
-10 -15 -5 0 -6 -7 -3 -17 4 -11 3 -14 -5 -9 -7 4 -12 2 -12 -4 0 -6 -5 -8
-12 -4 -6 4 -8 3 -4 -4 3 -6 1 -16 -6 -24 -26 -27 -43 -52 -30 -44 6 4 12 2
12 -3 0 -6 -7 -11 -15 -11 -8 0 -15 -9 -15 -20 0 -11 -4 -20 -10 -20 -5 0 -10
-7 -10 -15 0 -8 -8 -15 -17 -16 -12 0 -13 -2 -5 -6 10 -4 9 -9 -5 -20 -11 -9
-12 -12 -3 -8 10 4 9 2 -2 -8 -10 -8 -15 -17 -11 -20 3 -4 -2 -7 -13 -7 -10 0
-15 -4 -9 -8 13 -9 18 -35 5 -27 -9 5 -11 1 -10 -20 1 -3 -6 -13 -15 -21 -8
-9 -15 -24 -15 -35 0 -11 -4 -18 -8 -15 -8 5 -12 -8 -13 -47 0 -9 -4 -15 -10
-12 -5 4 -9 -3 -9 -15 0 -14 -4 -19 -12 -14 -9 5 -9 3 1 -9 11 -14 11 -18 -2
-23 -9 -3 -14 -14 -12 -24 2 -10 -3 -21 -12 -24 -11 -5 -12 -10 -4 -19 6 -9 7
-17 1 -23 -5 -5 -11 -26 -14 -46 -2 -21 -8 -43 -12 -50 -5 -7 -7 -21 -5 -32 2
-13 -1 -16 -11 -10 -9 5 -8 2 2 -11 13 -17 13 -18 0 -13 -12 4 -15 -2 -14 -33
0 -22 -4 -39 -10 -39 -6 0 -4 -5 4 -10 8 -5 10 -10 4 -10 -7 0 -15 -7 -18 -16
-3 -8 -2 -12 4 -9 6 3 10 -1 10 -10 0 -9 -4 -13 -10 -10 -5 3 -10 1 -10 -4 0
-6 5 -11 10 -11 6 0 10 -5 10 -11 0 -5 -4 -8 -9 -5 -5 4 -10 -32 -10 -81 -1
-58 -5 -89 -13 -95 -10 -6 -10 -8 0 -8 6 0 12 -7 12 -16 0 -9 -5 -12 -12 -8
-9 5 -9 2 1 -9 11 -14 11 -20 0 -34 -10 -11 -10 -14 -1 -9 6 4 12 3 12 -1 0
-5 -6 -15 -12 -22 -10 -11 -10 -13 0 -7 9 6 12 -14 12 -84 0 -70 3 -89 13 -84
8 5 8 2 -2 -9 -10 -13 -10 -17 -1 -17 9 0 9 -4 -1 -17 -12 -14 -12 -16 1 -11
12 4 15 -2 14 -31 -1 -20 3 -39 9 -43 9 -6 8 -8 -1 -8 -10 0 -9 -4 3 -16 13
-13 13 -19 3 -32 -11 -13 -11 -14 1 -7 11 6 13 4 8 -8 -3 -9 -2 -19 4 -23 6
-4 5 -12 -3 -22 -11 -13 -11 -15 4 -9 13 4 16 1 13 -15 -3 -11 3 -34 11 -50
12 -23 12 -28 2 -22 -10 6 -10 4 1 -9 8 -10 14 -31 15 -48 1 -16 8 -34 15 -38
8 -5 12 -18 8 -30 -3 -11 1 -25 9 -32 8 -6 14 -18 14 -26 0 -8 4 -12 9 -9 5 3
11 -8 15 -24 8 -41 8 -43 26 -63 8 -10 16 -28 18 -40 1 -12 3 -28 4 -34 1 -9
5 -10 14 -2 9 8 12 4 10 -15 -2 -14 2 -24 8 -23 6 1 12 -10 14 -25 2 -16 8
-28 13 -28 15 0 39 -27 31 -35 -4 -3 1 -11 11 -16 9 -6 17 -19 17 -29 0 -10 9
-25 20 -33 11 -8 17 -17 13 -20 -3 -4 -1 -7 5 -7 7 0 12 -7 12 -16 0 -8 4 -12
10 -9 6 3 10 -1 10 -10 0 -9 5 -13 10 -10 6 3 10 -1 10 -9 0 -9 8 -16 18 -17
14 0 14 -2 -3 -9 -17 -7 -17 -9 -2 -9 9 -1 17 -9 17 -18 0 -15 2 -16 10 -3 8
12 10 10 10 -9 0 -20 2 -22 16 -11 8 8 14 9 13 4 -4 -23 2 -45 11 -39 6 3 10
-1 10 -10 0 -9 4 -13 10 -10 5 3 10 -1 10 -10 0 -9 4 -13 10 -10 5 3 10 -1 10
-9 0 -8 5 -18 12 -22 7 -5 8 -3 3 6 -5 9 -4 11 3 6 7 -4 12 -14 12 -22 0 -8 4
-13 9 -10 5 3 11 -4 14 -16 4 -12 9 -19 13 -16 8 8 34 -16 34 -31 0 -11 13
-15 38 -12 7 1 11 -2 10 -7 -2 -5 10 -21 25 -36 30 -27 43 -34 31 -14 -4 7 -3
8 4 4 7 -4 12 -17 12 -29 0 -18 2 -19 10 -7 7 11 10 11 10 2 0 -7 16 -20 35
-28 21 -8 35 -21 35 -32 0 -14 2 -15 10 -2 8 12 10 12 16 -3 3 -9 10 -14 15
-11 5 3 9 -3 10 -13 0 -12 2 -13 6 -5 4 10 9 8 20 -7 8 -12 21 -21 29 -21 8 0
13 -4 9 -9 -3 -5 -1 -13 5 -16 6 -4 9 -1 8 6 -2 6 3 14 10 16 7 3 11 -1 10 -9
-2 -7 5 -13 15 -13 10 0 22 -6 26 -14 5 -7 13 -11 19 -7 6 3 14 1 18 -5 5 -8
3 -9 -7 -4 -8 5 -10 4 -6 0 8 -9 30 -16 59 -18 9 -1 16 -4 16 -7 0 -3 0 -12 1
-20 1 -13 2 -13 11 0 9 13 12 13 23 0 6 -8 21 -17 32 -18 11 -2 23 -9 27 -15
5 -8 8 -5 8 7 0 11 3 16 8 12 4 -4 7 -13 7 -19 0 -7 14 -11 33 -11 23 1 32 -3
32 -15 0 -14 2 -14 10 -1 6 10 10 11 10 3 0 -7 3 -12 8 -12 18 3 33 -2 28 -9
-2 -4 4 -8 14 -8 11 0 16 6 13 16 -3 10 -1 10 7 -2 6 -10 19 -18 28 -18 10 0
23 -5 30 -12 15 -15 53 -18 45 -4 -5 8 -3 8 8 0 8 -6 33 -10 56 -10 23 1 41
-3 40 -9 -1 -6 28 -11 68 -13 41 -1 72 -8 77 -15 6 -9 8 -9 8 0 0 6 13 11 30
11 16 -1 28 -4 25 -8 -2 -3 7 -6 20 -6 13 0 21 4 19 8 -3 4 0 8 5 8 6 0 11 -6
11 -12 0 -9 4 -8 10 2 9 13 10 13 10 0 0 -13 1 -13 10 0 9 13 10 13 10 0 0
-13 1 -13 10 0 6 10 10 11 10 3 0 -7 5 -13 11 -13 5 0 8 4 5 9 -4 5 2 8 11 6
10 -2 18 -4 18 -5 0 -1 8 -3 18 -5 9 -2 15 1 11 6 -3 5 2 9 11 9 10 0 13 -5 9
-12 -6 -10 -5 -10 7 -1 12 10 18 10 29 0 10 -9 11 -9 6 1 -7 12 23 17 87 12
18 -1 34 5 43 17 10 13 13 14 9 2 -5 -12 0 -16 19 -15 14 1 29 6 33 10 5 5 1
6 -7 1 -12 -7 -13 -6 -2 6 11 12 14 12 22 -1 8 -12 10 -12 10 -1 0 7 6 11 15
7 8 -3 15 -2 15 3 0 4 11 6 24 4 13 -3 27 0 30 6 4 6 20 11 36 11 17 0 33 7
39 18 7 11 10 13 11 3 0 -10 3 -11 13 -2 8 6 17 8 20 4 4 -3 7 0 7 8 0 11 2
11 10 -1 8 -13 10 -12 10 3 0 12 6 17 18 15 11 -2 27 4 37 12 11 9 16 10 11 2
-4 -6 -3 -12 3 -12 5 0 11 4 13 10 2 5 19 10 39 12 27 1 35 6 32 16 -4 9 1 13
13 12 32 -4 40 0 24 11 -12 8 -10 9 8 4 13 -4 22 -2 22 5 0 6 4 9 9 6 5 -4 11
-1 13 4 2 6 13 12 25 12 13 1 19 7 16 15 -4 10 2 13 21 9 20 -4 26 -1 26 12 0
15 2 15 10 2 6 -10 10 -11 10 -2 0 6 7 12 15 12 8 0 15 6 15 14 0 8 5 18 12
22 7 4 8 3 4 -4 -12 -20 9 -13 24 8 10 14 16 16 22 7 5 -8 8 -7 8 6 0 11 8 17
23 17 18 0 19 2 7 10 -13 8 -12 10 5 11 11 1 23 1 28 0 4 0 7 6 7 14 0 8 7 15
16 15 9 0 12 -5 8 -12 -4 -7 -3 -8 5 -4 6 4 9 12 6 17 -4 5 5 13 19 19 14 5
26 15 26 22 1 8 6 7 14 -4 7 -10 20 -18 28 -18 8 0 20 -10 26 -22 6 -13 11
-17 11 -9 1 10 6 8 19 -6 9 -11 28 -24 42 -28 30 -9 62 -40 52 -51 -4 -4 -2
-4 5 -1 15 9 45 -2 37 -14 -4 -8 25 -14 49 -10 4 1 10 -6 13 -14 4 -8 13 -15
21 -15 8 0 11 -5 7 -11 -4 -7 1 -7 16 1 12 7 20 8 18 3 -7 -12 26 -40 45 -37
10 1 17 -5 17 -14 0 -15 2 -15 10 -2 7 11 10 11 10 2 0 -7 4 -11 9 -7 5 3 16
-2 24 -10 9 -8 25 -15 36 -15 12 0 21 -4 21 -10 0 -5 5 -10 11 -10 5 0 7 5 3
12 -4 7 8 1 26 -12 18 -13 30 -18 26 -11 -7 11 -4 10 15 0 13 -7 31 -13 40
-14 9 0 22 -5 30 -12 8 -6 36 -13 61 -14 26 -2 47 -5 46 -8 -2 -21 4 -22 17
-5 11 13 14 14 13 4 -2 -8 3 -14 10 -13 6 2 12 -1 12 -7 0 -6 9 -6 25 0 16 6
27 6 31 -2 4 -7 3 -8 -4 -4 -7 4 -12 2 -12 -3 0 -13 10 -14 30 -1 9 5 19 5 26
-1 7 -6 41 -10 76 -10 37 -1 66 -5 70 -12 6 -9 8 -9 8 1 0 6 5 12 11 12 5 0 8
-4 5 -8 -2 -4 6 -8 19 -8 13 0 21 4 19 8 -3 4 0 8 5 8 6 0 11 -6 11 -12 0 -9
4 -8 10 2 9 13 10 13 10 0 0 -13 1 -13 10 0 9 13 10 13 10 0 0 -13 1 -13 10 0
6 10 10 11 10 3 0 -7 5 -13 11 -13 5 0 8 4 5 9 -4 5 2 8 11 6 10 -2 18 -4 18
-5 0 -1 12 -3 27 -4 15 -2 25 1 22 6 -3 4 1 8 10 8 8 0 17 -6 19 -12 4 -10 6
-10 6 0 1 6 6 12 12 12 5 0 7 -6 3 -12 -6 -9 -3 -9 9 1 9 7 40 13 69 13 29 1
59 6 67 12 12 9 13 8 6 -4 -7 -13 -6 -13 7 -2 13 10 17 10 21 0 3 -7 6 -4 6 7
1 17 3 17 11 5 5 -8 10 -10 10 -4 0 7 17 11 45 10 29 -1 44 2 41 9 -2 6 8 12
22 13 14 1 29 7 33 13 4 8 8 7 12 -2 4 -12 7 -12 18 0 12 12 12 13 0 6 -10 -5
-12 -4 -7 4 5 7 13 8 24 2 15 -9 49 3 63 23 4 5 16 6 27 4 12 -3 28 1 39 11
10 9 28 16 41 15 14 -1 22 4 22 15 0 13 2 13 9 2 6 -9 11 -10 15 -2 4 6 12 8
18 5 7 -4 8 -2 4 4 -4 7 -2 13 3 13 6 1 16 3 21 4 6 1 17 3 26 4 8 0 12 6 9
11 -6 9 10 14 42 13 7 0 11 4 10 11 -1 6 6 10 15 10 10 -1 16 3 15 9 -2 11 4
13 46 16 18 1 19 3 7 11 -12 8 -11 10 7 10 12 0 25 5 28 10 4 6 12 7 18 4 7
-4 9 -4 5 1 -5 5 2 13 15 20 12 6 21 16 20 22 -1 6 5 10 15 9 9 0 16 5 15 11
-2 7 0 13 5 12 19 -3 52 15 52 28 0 8 5 11 11 8 6 -4 17 1 25 11 15 18 15 18
9 -1 -5 -16 -4 -18 6 -8 14 14 33 18 26 6 -2 -5 9 -19 26 -33 17 -14 28 -18
23 -10 -4 8 -1 7 7 -2 8 -10 21 -18 30 -18 9 0 19 -4 22 -10 3 -6 -1 -7 -12
-4 -17 5 -17 5 0 -6 9 -6 21 -9 26 -6 5 3 12 -1 15 -10 3 -8 11 -12 16 -9 6 4
9 1 8 -6 -2 -7 10 -16 27 -20 17 -4 23 -7 15 -8 -12 -1 -13 -3 -1 -10 7 -5 22
-6 32 -4 13 4 19 0 19 -12 0 -11 5 -15 15 -11 8 3 15 1 15 -5 0 -6 5 -7 10 -4
6 3 10 0 10 -8 0 -9 9 -13 24 -12 18 2 23 -1 19 -11 -4 -10 0 -12 12 -7 11 4
22 0 29 -9 12 -17 16 -18 49 -18 18 0 19 -2 7 -10 -11 -7 -3 -10 30 -10 33 0
41 -3 30 -10 -12 -8 -10 -10 10 -11 14 -1 29 -1 34 0 5 1 13 -4 17 -11 7 -11
9 -11 9 0 0 7 5 10 10 7 6 -4 8 -10 5 -14 -2 -5 7 -7 20 -5 16 1 25 -3 25 -12
0 -8 5 -14 11 -14 5 0 8 4 5 8 -3 5 1 9 9 9 8 0 12 -4 9 -9 -5 -7 22 -11 78
-11 9 0 14 -5 11 -12 -3 -9 7 -12 36 -11 22 1 42 -2 44 -8 2 -5 22 -11 45 -12
29 -1 40 1 36 9 -5 8 -2 7 7 -1 7 -6 29 -12 49 -12 20 0 42 -6 49 -13 11 -9
13 -9 7 1 -4 7 -1 12 8 12 8 0 17 -6 19 -12 4 -10 6 -10 6 0 1 6 6 12 12 12 5
0 8 -3 5 -8 -2 -4 9 -8 26 -9 21 0 26 2 17 8 -11 7 -10 9 4 9 9 0 17 -4 17
-10 0 -5 7 -10 15 -10 8 0 15 6 15 13 0 8 4 7 10 -3 9 -13 10 -13 10 0 0 13 1
13 10 0 9 -13 10 -13 10 0 0 13 1 13 10 0 9 -13 10 -13 10 0 0 12 2 13 9 1 7
-11 9 -11 13 0 5 12 9 12 28 1 12 -8 19 -9 15 -3 -9 15 8 14 24 -2 11 -9 13
-9 7 1 -7 12 27 16 117 14 15 0 25 3 23 7 -3 4 1 8 9 8 8 0 15 -4 15 -9 0 -5
5 -6 10 -3 6 4 7 11 4 17 -4 6 1 6 14 -1 13 -7 23 -7 27 -2 3 6 15 8 26 6 14
-3 19 0 16 8 -3 7 3 13 12 14 56 2 91 8 91 14 0 5 9 6 20 4 11 -2 22 1 25 6 4
5 10 7 15 4 5 -3 14 1 22 8 7 8 26 13 42 12 16 0 34 5 41 12 7 6 24 14 38 15
13 2 32 10 40 17 9 7 21 10 27 6 5 -3 10 -2 10 4 0 5 -6 12 -12 15 -7 3 4 4
25 2 33 -3 36 -2 25 12 -8 10 -9 13 -1 9 6 -4 18 0 26 8 9 8 25 15 36 15 12 0
21 5 21 11 0 5 5 7 10 4 6 -3 10 -1 10 4 0 6 11 11 25 11 16 0 25 6 25 16 0 8
4 13 9 9 6 -3 13 1 18 8 4 7 22 19 40 26 17 7 34 19 37 28 3 8 10 12 15 9 5
-3 12 1 15 10 4 9 9 14 13 11 3 -4 12 1 20 11 10 11 12 12 8 2 -3 -8 2 -5 11
7 16 22 62 34 49 13 -3 -6 1 -10 9 -10 9 0 16 -4 16 -10 0 -5 7 -10 15 -10 8
0 15 -6 15 -12 0 -9 4 -8 10 2 8 13 10 12 10 -3 0 -10 4 -16 9 -13 4 3 21 -6
37 -20 16 -15 23 -23 15 -19 -10 6 -12 4 -7 -4 6 -9 11 -9 21 -1 11 9 17 7 27
-9 7 -12 17 -21 22 -21 5 0 16 -9 25 -19 9 -11 30 -21 46 -23 17 -1 29 -8 28
-15 -2 -7 6 -10 16 -8 11 2 30 -5 42 -16 12 -10 30 -19 40 -19 10 0 21 -5 24
-11 4 -6 14 -8 22 -4 12 4 13 2 5 -8 -9 -10 -3 -13 26 -15 20 -2 39 -7 40 -12
2 -6 14 -10 26 -10 12 0 28 -6 35 -12 11 -10 13 -10 7 0 -4 6 -2 12 3 12 6 0
11 -7 11 -15 0 -15 11 -19 38 -16 8 1 21 -4 30 -11 13 -11 15 -11 7 2 -7 13
-6 13 11 0 10 -9 32 -15 47 -14 20 1 27 -3 23 -13 -4 -9 -2 -11 7 -6 15 9 48
5 65 -9 8 -7 12 -7 12 0 0 5 9 8 21 5 13 -4 17 -8 9 -13 -6 -4 14 -7 46 -6 31
1 68 -4 80 -11 13 -6 23 -9 23 -5 -3 21 3 24 17 6 8 -10 13 -13 9 -6 -4 7 0
12 9 12 8 0 17 -6 19 -12 4 -10 6 -10 6 0 1 6 6 12 12 12 5 0 8 -4 5 -9 -7
-11 13 -9 32 2 7 5 12 3 12 -5 0 -9 3 -9 10 2 9 13 10 13 10 0 0 -13 1 -13 10
0 9 13 10 13 10 0 0 -13 1 -13 10 0 9 13 10 13 10 0 0 -13 1 -13 10 0 6 10 10
11 10 3 0 -7 5 -13 11 -13 5 0 8 4 5 8 -3 5 1 9 9 9 8 0 12 -3 10 -7 -2 -4 2
-7 10 -7 8 0 12 4 9 9 -3 4 2 8 11 8 9 0 13 -5 10 -11 -4 -6 2 -5 13 2 17 11
24 10 38 -2 11 -9 15 -9 10 -1 -5 9 5 12 38 13 25 1 56 2 69 2 12 1 25 6 29
11 5 7 8 6 8 -2 0 -11 3 -11 14 1 8 8 31 13 55 12 28 -1 40 2 37 10 -5 13 22
13 43 0 10 -5 12 -4 7 3 -4 8 0 12 11 12 11 0 25 6 32 13 8 6 11 7 8 2 -3 -6
4 -12 16 -12 17 -2 19 0 7 7 -16 10 -8 14 23 11 9 -1 17 3 17 8 0 6 5 11 11
11 5 0 7 -6 3 -12 -4 -7 2 -5 13 4 11 10 27 18 36 18 9 0 19 5 22 10 3 6 12
10 18 10 7 0 6 -4 -3 -10 -8 -5 -10 -10 -5 -10 6 1 18 7 28 15 11 7 25 11 33
8 9 -3 14 1 14 12 0 9 4 13 10 10 5 -3 20 1 33 10 13 8 27 12 32 8 4 -5 6 -1
3 7 -4 12 2 17 24 18 16 1 37 9 45 18 9 8 22 13 29 10 8 -3 14 1 14 9 0 9 10
15 26 15 19 0 25 4 21 14 -4 10 0 14 14 11 11 -2 19 2 19 9 0 8 8 13 18 12 10
0 16 5 14 13 -2 8 3 11 12 8 9 -4 18 -2 21 3 4 6 1 10 -6 10 -7 0 -9 3 -6 6 4
4 14 1 24 -7 9 -8 14 -9 11 -4 -4 6 0 19 8 30 8 11 14 14 14 6 0 -11 3 -11 15
-1 8 7 12 17 8 24 -4 6 1 5 11 -3 9 -8 16 -10 15 -5 -3 18 1 37 8 31 3 -4 12
2 20 13 8 11 21 20 29 20 8 0 14 4 14 9 0 5 9 12 19 16 10 3 21 15 24 27 4 15
11 19 26 15 14 -3 18 -1 14 9 -3 8 1 14 11 14 10 0 16 9 16 23 0 18 2 19 10 7
8 -13 10 -12 10 3 0 9 5 17 11 17 6 0 17 6 25 14 11 11 11 16 1 19 -7 3 -5 6
5 6 9 1 20 6 24 13 5 7 3 8 -6 3 -9 -5 -11 -4 -6 3 4 7 13 12 21 12 8 0 22 16
31 35 9 19 23 35 31 35 10 0 14 7 10 19 -3 14 -1 18 9 14 9 -3 14 2 14 16 0
12 6 20 13 19 6 -2 11 3 9 10 -1 6 5 12 14 12 8 0 13 4 10 9 -3 5 1 11 9 15 8
3 15 18 15 33 0 20 3 24 9 14 10 -16 18 -4 15 27 -1 18 1 20 13 10 8 -6 13 -7
12 -2 -4 23 2 45 11 39 6 -3 10 2 10 13 0 10 11 31 25 46 14 15 25 38 25 52 0
14 4 22 10 19 8 -5 12 9 10 40 -1 3 6 13 15 22 9 8 14 22 11 29 -3 8 0 13 6
11 12 -2 14 4 17 39 0 8 6 12 11 9 6 -4 10 6 10 24 0 25 3 29 18 24 14 -5 13
-3 -3 10 -15 13 -16 16 -5 17 10 0 16 11 16 31 1 17 7 34 12 38 6 4 12 26 13
49 2 23 8 42 13 42 7 0 11 24 11 60 0 33 3 60 8 60 5 0 6 -8 3 -17 -4 -10 -3
-14 1 -9 4 4 9 33 10 64 2 75 2 74 11 68 4 -2 9 5 9 17 2 17 0 18 -7 7 -7 -11
-9 -10 -7 7 0 12 5 19 9 17 7 -5 9 51 9 226 0 144 -2 171 -11 165 -5 -3 -10
-1 -10 4 0 6 5 11 10 11 6 0 10 5 10 11 0 5 -4 7 -10 4 -14 -9 -12 8 3 24 10
11 10 13 0 7 -12 -7 -17 22 -16 101 0 12 -4 20 -9 17 -4 -3 -5 -10 -2 -16 4
-7 2 -8 -4 -4 -8 4 -8 15 -2 31 5 14 6 25 1 25 -5 0 -8 16 -8 36 1 19 -4 39
-11 42 -6 4 -12 24 -14 45 -1 20 -6 37 -10 37 -4 0 -4 7 -1 17 4 10 2 14 -4
10 -6 -4 -10 1 -10 11 0 32 -3 43 -10 39 -5 -3 -9 11 -11 31 -1 21 -7 39 -12
40 -6 2 -10 16 -10 30 0 21 -2 24 -10 12 -8 -13 -10 -12 -11 5 -1 11 -1 24 0
29 1 5 -5 16 -14 26 -8 9 -16 28 -17 43 -1 14 -5 24 -9 21 -10 -6 -20 26 -12
39 4 7 0 6 -10 -1 -14 -12 -16 -11 -12 6 2 11 -3 23 -11 26 -8 3 -14 15 -14
26 0 11 -4 20 -10 20 -5 0 -10 10 -10 23 0 18 -2 19 -10 7 -7 -10 -10 -11 -11
-2 -1 6 -2 17 -3 22 0 6 -7 14 -14 19 -8 5 -13 11 -13 15 4 25 -1 35 -13 30
-9 -3 -13 1 -13 13 1 10 -4 17 -11 15 -6 -1 -11 4 -10 10 2 7 -2 12 -9 11 -7
-2 -10 4 -7 12 4 8 -1 17 -10 21 -9 3 -16 15 -16 25 0 13 -5 17 -17 12 -11 -4
-14 -3 -9 5 4 7 2 12 -4 12 -6 0 -9 4 -5 9 3 5 -4 12 -15 16 -11 4 -18 11 -15
16 4 5 1 9 -4 9 -6 0 -11 8 -11 18 0 14 -2 15 -10 2 -8 -12 -10 -10 -10 10 0
20 -2 22 -10 10 -8 -12 -10 -10 -10 9 0 13 -3 21 -7 17 -4 -3 -13 6 -20 21 -7
16 -11 19 -8 8 5 -17 3 -16 -18 5 -13 14 -22 28 -20 33 4 7 -9 10 -37 8 -10 0
-11 1 -2 5 6 3 12 10 12 15 0 6 -4 7 -10 4 -5 -3 -10 -1 -10 5 0 6 -4 9 -8 6
-5 -3 -16 6 -26 19 -10 14 -22 22 -27 19 -5 -3 -9 2 -9 11 0 9 -4 13 -10 10
-5 -3 -10 1 -10 9 0 11 -9 16 -27 16 -20 0 -24 3 -14 9 11 7 9 10 -8 16 -11 3
-21 12 -21 18 0 7 -4 6 -10 -3 -8 -13 -10 -12 -10 3 0 10 -4 15 -10 12 -5 -3
-10 -1 -10 4 0 6 -7 11 -15 11 -9 0 -18 7 -22 16 -5 13 -7 13 -14 2 -6 -9 -9
-7 -9 9 0 17 -5 21 -21 18 -15 -3 -19 0 -15 11 3 9 1 12 -4 9 -6 -3 -10 -2
-10 4 0 6 -7 8 -15 5 -8 -3 -22 1 -30 10 -9 9 -22 16 -30 16 -20 0 -66 26 -58
33 6 6 -4 9 -23 6 -4 0 -10 4 -14 11 -4 6 -23 12 -43 13 -29 2 -33 4 -24 16
10 12 9 14 -5 8 -10 -3 -24 0 -32 8 -11 11 -16 12 -19 2 -4 -9 -6 -9 -6 1 -1
6 -12 12 -26 12 -14 0 -25 6 -25 13 0 8 -3 7 -10 -3 -8 -12 -10 -12 -16 3 -3
9 -10 15 -14 12 -11 -7 -41 5 -36 14 3 4 -5 8 -17 8 -17 2 -19 0 -7 -7 9 -6
10 -10 3 -10 -6 0 -15 5 -18 10 -3 6 -19 10 -35 10 -15 0 -30 4 -32 9 -1 5
-16 11 -33 13 -16 2 -40 9 -52 16 -20 11 -22 10 -17 -5 5 -17 5 -17 -9 0 -14
17 -33 24 -23 9 3 -5 -1 -9 -9 -9 -8 0 -11 5 -8 10 4 6 -3 8 -16 4 -12 -3 -36
-1 -53 4 -20 5 -36 5 -44 -2 -8 -7 -13 -6 -16 2 -5 15 -69 20 -85 7 -9 -7 -13
-7 -13 1 0 6 -15 11 -32 10 -27 0 -29 -2 -13 -9 15 -5 9 -7 -22 -6 -22 0 -39
4 -36 9 2 4 0 7 -6 7 -5 0 -13 -5 -16 -10 -4 -6 -11 -8 -16 -5 -21 14 -53 13
-79 0 -23 -12 -31 -12 -54 0 -15 8 -24 10 -21 5 4 -6 -9 -10 -30 -10 -22 0
-34 -4 -30 -10 4 -7 -3 -7 -19 0 -22 8 -26 7 -26 -7 0 -15 -2 -14 -15 3 -11
13 -14 14 -13 4 2 -11 -9 -16 -44 -18 -27 -2 -48 -7 -48 -13 0 -5 -16 -9 -36
-9 -24 0 -33 -4 -28 -12 5 -8 2 -9 -9 -5 -10 3 -17 2 -17 -4 0 -6 -4 -7 -10
-4 -5 3 -19 1 -30 -5 -16 -9 -19 -8 -14 7 2 10 -1 8 -7 -5 -8 -15 -20 -22 -33
-20 -12 2 -25 -2 -31 -9 -5 -7 -25 -14 -43 -15 -20 -1 -31 -7 -28 -14 3 -7 -6
-10 -25 -8 -17 2 -28 0 -25 -5 7 -11 -22 -23 -35 -15 -5 3 -9 -2 -9 -10 0 -10
-9 -16 -25 -16 -14 0 -25 -4 -25 -10 0 -5 -7 -10 -16 -10 -8 0 -13 -4 -10 -9
4 -5 -3 -7 -14 -4 -11 3 -20 0 -20 -6 0 -6 -6 -11 -14 -11 -8 0 -16 -7 -19
-15 -4 -8 -15 -12 -27 -10 -13 3 -20 -1 -20 -12 0 -10 -6 -13 -16 -9 -8 3 -12
2 -9 -4 3 -6 -2 -13 -12 -17 -10 -3 -31 -18 -46 -32 -25 -22 -27 -23 -22 -6 5
16 4 16 -7 -3 -8 -12 -17 -19 -21 -16 -4 4 -7 2 -7 -4 0 -7 -7 -12 -16 -12
-10 0 -14 -6 -11 -14 4 -10 1 -13 -9 -9 -7 3 -14 9 -14 14 0 5 -7 9 -15 9 -7
0 -18 6 -22 14 -8 14 -12 16 -34 16 -5 0 -8 4 -5 9 3 5 -2 8 -12 7 -9 0 -16 5
-15 12 2 6 -6 12 -17 12 -11 0 -20 4 -20 9 0 10 -39 27 -52 23 -5 -1 -7 3 -5
10 1 6 -10 18 -25 25 -16 8 -28 19 -28 24 0 6 -5 7 -11 3 -8 -4 -7 -9 2 -15
10 -6 10 -9 2 -9 -7 0 -16 7 -21 17 -6 9 -16 14 -25 10 -11 -4 -14 -2 -10 9 5
13 -7 18 -36 15 -7 -2 -10 2 -6 8 3 7 -3 11 -15 11 -14 0 -19 4 -14 13 5 8 3
8 -9 -2 -14 -11 -18 -11 -23 2 -3 9 -14 14 -26 12 -16 -4 -18 -2 -7 11 10 12
9 13 -3 9 -9 -4 -23 1 -32 10 -10 10 -16 12 -16 4 0 -9 -3 -9 -14 0 -8 7 -27
14 -43 15 -15 2 -32 4 -36 5 -5 0 -5 6 -1 13 4 7 3 8 -5 4 -6 -4 -18 -3 -26 4
-8 7 -15 7 -19 1 -4 -6 -13 -8 -21 -5 -8 4 -12 10 -9 15 3 5 -11 9 -31 9 -26
0 -34 3 -29 13 5 7 0 6 -11 -3 -11 -9 -16 -10 -11 -2 7 11 -17 17 -53 13 -7
-2 -10 2 -6 9 6 9 2 9 -12 1 -14 -7 -23 -7 -31 1 -6 6 -29 12 -50 12 -22 1
-48 8 -58 16 -10 9 -15 10 -10 3 4 -8 2 -13 -6 -14 -24 -2 -63 3 -73 9 -15 10
-38 12 -49 4 -17 -10 -37 -11 -30 -1 3 5 -2 9 -11 9 -9 0 -14 -3 -11 -8 2 -4
-13 -7 -34 -7 -21 0 -36 3 -34 7 3 5 1 8 -5 8 -5 0 -13 -5 -16 -10 -4 -6 -11
-8 -16 -5 -17 11 -50 14 -44 4 4 -5 1 -9 -4 -9 -6 0 -11 5 -11 12 0 9 -3 9
-12 0 -16 -16 -31 -15 -22 1 4 6 -1 5 -12 -4 -21 -18 -48 -14 -37 4 4 7 -1 6
-11 -2 -9 -8 -41 -15 -71 -16 -29 0 -60 -7 -68 -13 -8 -7 -19 -12 -23 -11 -28
5 -74 -2 -69 -11 3 -5 1 -10 -4 -10 -6 0 -11 5 -11 11 0 6 -6 4 -14 -4 -8 -8
-27 -13 -41 -12 -19 3 -23 0 -16 -8 6 -9 2 -13 -15 -14 -56 -6 -64 -8 -64 -16
0 -5 -8 -7 -17 -5 -10 2 -24 -3 -31 -12 -8 -8 -11 -9 -7 -2 3 6 2 12 -4 12 -5
0 -11 -5 -13 -11 -2 -6 -18 -12 -35 -12 -23 -1 -29 -5 -22 -14 8 -8 5 -10 -10
-6 -13 3 -21 1 -21 -7 0 -10 -3 -10 -15 0 -12 10 -15 10 -15 -4 0 -9 -6 -15
-12 -13 -7 1 -12 -4 -11 -10 2 -7 -1 -13 -6 -13 -5 0 -12 6 -14 13 -4 10 -6
10 -6 0 -1 -7 -7 -13 -15 -13 -8 0 -16 -5 -18 -11 -2 -6 -16 -12 -31 -12 -28
-2 -36 -12 -14 -20 6 -3 2 -6 -10 -6 -31 -1 -54 -12 -47 -22 3 -5 -1 -6 -9 -3
-8 3 -17 -2 -20 -10 -4 -9 -17 -16 -29 -16 -19 0 -20 -2 -8 -10 12 -8 11 -10
-7 -10 -13 0 -23 -5 -23 -11 0 -5 -4 -8 -9 -5 -5 3 -12 -2 -15 -11 -6 -15 -8
-15 -16 -3 -8 12 -10 10 -10 -7 0 -17 -4 -21 -17 -16 -11 4 -14 3 -9 -5 7 -12
-16 -17 -59 -14 -16 2 -17 0 -5 -8 11 -7 11 -10 2 -10 -7 0 -15 7 -18 15 -4 8
-11 12 -18 8 -6 -4 -5 1 3 11 8 9 10 16 5 15 -25 -4 -45 2 -38 13 4 6 3 8 -4
4 -6 -3 -18 2 -28 11 -10 10 -20 17 -23 16 -3 0 -5 4 -3 10 2 6 -3 5 -12 -2
-12 -10 -14 -8 -10 11 2 13 1 17 -2 10 -5 -10 -10 -10 -25 4 -10 9 -25 14 -35
10 -14 -5 -15 -4 -4 9 13 16 5 20 -29 16 -8 -2 -10 2 -5 10 5 9 2 10 -9 6 -10
-3 -17 -2 -17 3 0 6 -9 10 -20 10 -11 0 -20 5 -20 10 0 6 -6 10 -14 10 -8 0
-16 4 -18 10 -1 5 -15 11 -30 12 -19 2 -24 6 -17 14 6 8 2 10 -16 9 -14 -2
-37 6 -52 18 -15 12 -24 16 -20 9 6 -8 3 -10 -7 -6 -9 3 -16 11 -16 18 0 6 -5
4 -10 -4 -6 -10 -10 -11 -10 -2 0 7 -13 12 -29 12 -17 0 -33 5 -37 12 -5 7 -3
8 6 3 8 -5 11 -4 7 3 -4 5 -16 8 -27 5 -11 -3 -20 -1 -20 5 0 6 -9 8 -20 5
-11 -3 -20 0 -20 6 0 6 -17 11 -40 11 -22 0 -40 5 -40 10 0 6 -11 10 -24 10
-13 0 -39 6 -57 13 -19 7 -67 13 -106 12 -40 0 -73 4 -73 8 0 5 -4 6 -9 3 -5
-4 -12 0 -14 6 -4 10 -6 10 -6 0 -1 -10 -6 -10 -21 -2 -11 6 -26 7 -33 3 -18
-11 -38 -13 -31 -2 3 5 -2 9 -11 9 -9 0 -14 -4 -11 -8 6 -10 -51 -9 -60 1 -11
10 -26 8 -19 -2 3 -6 -4 -8 -17 -5 -40 10 -133 13 -119 5 9 -6 9 -11 3 -15 -6
-3 -13 -2 -16 3 -3 5 -21 6 -38 2 -18 -4 -43 -6 -56 -5 -12 1 -25 -3 -28 -7
-3 -5 -14 -4 -25 1 -10 6 -19 7 -18 3 3 -19 -2 -27 -10 -14 -6 8 -14 10 -22 5
-8 -5 -25 -10 -39 -12 -13 -2 -28 -9 -32 -15 -6 -9 -8 -9 -8 1 0 6 -5 12 -11
12 -5 0 -7 -4 -4 -10 3 -6 -4 -10 -17 -10 -13 0 -28 -4 -34 -9 -5 -6 -20 -11
-34 -13 -14 -2 -31 -7 -39 -12 -10 -6 -12 -5 -7 2 4 7 2 12 -3 12 -6 0 -11 -7
-11 -15 0 -9 -6 -15 -12 -14 -7 1 -26 1 -43 0 -22 -1 -26 -4 -16 -10 11 -7 4
-10 -25 -13 -27 -2 -38 -7 -36 -17 3 -12 1 -12 -15 -1 -10 8 -15 10 -11 6 8
-10 -35 -36 -58 -36 -8 0 -14 -4 -14 -10 0 -5 -12 -10 -27 -10 -20 0 -24 -3
-15 -9 10 -6 3 -10 -22 -15 -41 -8 -92 -32 -89 -43 1 -5 -7 -8 -17 -7 -13 0
-17 -3 -10 -11 6 -7 2 -11 -13 -12 -12 -1 -27 -10 -34 -19 -6 -9 -17 -13 -23
-9 -6 3 -10 3 -9 -2 1 -4 1 -15 0 -23 -1 -13 -2 -13 -11 0 -8 13 -10 12 -10
-3 0 -10 -4 -16 -9 -13 -5 4 -17 3 -26 0 -13 -5 -14 -8 -3 -15 9 -6 7 -9 -9
-9 -13 0 -23 -4 -23 -9 0 -5 -7 -12 -16 -15 -8 -3 -12 -2 -9 4 6 10 -28 32
-39 25 -3 -3 -4 -2 -2 1 2 3 -3 14 -12 24 -12 15 -19 17 -29 8 -11 -9 -13 -8
-11 3 2 8 -3 13 -9 12 -7 -2 -13 2 -13 7 0 6 -8 10 -17 10 -15 0 -16 2 -3 10
12 8 11 10 -6 10 -12 0 -25 7 -28 16 -4 11 -13 13 -27 9 -17 -6 -21 -4 -16 8
4 10 -3 17 -24 21 -19 3 -28 10 -23 17 4 7 0 9 -14 5 -13 -5 -24 -2 -29 8 -4
8 -17 16 -28 18 -11 1 -26 10 -33 18 -10 11 -12 11 -6 1 5 -9 3 -12 -4 -7 -7
4 -12 15 -13 24 0 14 -2 13 -9 -3 l-9 -20 0 20 c-1 17 -3 17 -11 5 -6 -10 -10
-11 -10 -3 0 7 -6 12 -12 10 -7 -1 -12 4 -10 12 3 12 1 12 -13 1 -14 -11 -16
-11 -13 0 2 8 -1 14 -7 15 -5 0 -16 4 -24 9 -11 7 -12 6 -6 -5 7 -11 6 -12 -6
-3 -8 5 -27 16 -42 22 -23 10 -27 10 -21 0 4 -7 -2 -5 -13 5 -11 9 -34 17 -51
17 -17 0 -34 5 -37 10 -3 6 -17 10 -31 10 -13 0 -24 5 -24 10 0 14 -27 12 -33
-2 -4 -9 -6 -8 -6 2 -1 11 -10 16 -28 15 -16 0 -31 3 -34 7 -10 14 -50 19 -42
5 5 -9 3 -9 -8 -1 -8 5 -25 10 -39 9 -14 0 -27 3 -30 7 -3 4 -22 3 -43 -1 -34
-8 -53 1 -24 12 9 4 9 6 0 6 -6 1 -15 -3 -18 -9 -3 -5 -11 -10 -16 -10 -6 0
-8 3 -6 8 3 4 -17 7 -44 8 -27 0 -44 -3 -38 -7 7 -4 1 -6 -14 -6 -14 1 -23 5
-21 8 1 3 -10 6 -26 6 -16 0 -27 -3 -25 -7 2 -3 -5 -6 -15 -6 -10 0 -17 3 -15
6 2 3 -7 6 -20 6 -13 0 -21 -4 -19 -8 3 -4 -5 -8 -18 -8 -18 0 -20 2 -8 10 12
7 10 9 -7 7 -12 0 -20 -4 -18 -7z m2452 -6 c-3 -3 -12 -4 -19 -1 -8 3 -5 6 6
6 11 1 17 -2 13 -5z m1353 -398 c0 -3 -4 -8 -10 -11 -5 -3 -10 -1 -10 4 0 6 5
11 10 11 6 0 10 -2 10 -4z m-3755 -46 c-9 -14 8 -12 24 3 11 10 13 10 7 0 -4
-7 -2 -13 3 -13 6 0 11 5 11 10 0 6 5 10 11 10 5 0 7 -6 3 -12 -5 -9 -2 -9 9
1 14 11 17 11 18 0 0 -12 1 -12 6 0 5 11 7 11 14 0 6 -10 9 -11 9 -1 0 6 5 12
11 12 5 0 8 -4 5 -9 -4 -5 2 -8 11 -6 10 2 18 4 18 6 0 1 10 3 22 4 12 1 20
-2 17 -6 -3 -5 0 -9 5 -9 6 0 11 6 11 13 0 9 2 9 8 0 4 -6 27 -12 52 -14 25
-1 51 -7 59 -13 11 -8 13 -8 7 2 -5 8 0 12 13 12 12 0 21 -4 21 -8 0 -4 9 -9
20 -10 11 -1 28 -2 38 -3 9 -1 23 -6 30 -12 10 -8 16 -7 23 4 8 13 13 6 10
-14 -1 -4 10 -5 24 -3 14 3 31 -1 39 -9 10 -11 16 -11 26 -2 7 7 11 8 8 2 -3
-5 4 -19 15 -29 20 -19 20 -19 13 -1 -7 18 -6 18 15 -1 14 -11 19 -13 14 -4
-7 12 -6 13 7 3 8 -7 18 -10 21 -6 4 3 7 -1 7 -10 0 -9 5 -17 11 -17 5 0 7 5
4 11 -4 6 2 5 13 -2 12 -7 18 -18 14 -24 -3 -5 3 -3 13 5 11 9 16 10 11 3 -5
-9 -1 -13 13 -13 11 0 26 -7 34 -15 8 -8 17 -11 21 -8 3 4 6 1 6 -6 0 -7 4
-10 9 -7 5 3 12 -1 15 -10 3 -8 10 -12 16 -9 5 3 10 1 10 -5 0 -6 4 -9 9 -5 5
3 12 -3 16 -14 4 -13 13 -18 25 -16 13 2 20 -2 20 -11 0 -8 9 -14 20 -14 11 0
20 -7 20 -15 0 -8 -4 -15 -10 -15 -5 0 -9 -3 -9 -7 3 -20 -2 -34 -11 -28 -5 3
-10 -1 -10 -9 0 -8 -9 -20 -21 -26 -16 -9 -18 -14 -8 -26 10 -12 9 -13 -6 -7
-15 5 -17 3 -12 -11 4 -9 3 -15 -1 -12 -4 2 -20 -14 -36 -37 -17 -22 -24 -37
-18 -33 7 4 12 2 12 -3 0 -6 -7 -11 -15 -11 -8 0 -14 -3 -14 -7 3 -20 -2 -34
-11 -28 -5 3 -10 -3 -10 -14 0 -12 -6 -21 -12 -21 -9 0 -8 -4 2 -10 13 -8 12
-10 -3 -10 -10 0 -16 -4 -13 -9 4 -5 -6 -24 -21 -42 -16 -18 -23 -30 -17 -26
6 3 11 0 11 -8 0 -8 -4 -12 -9 -9 -7 5 -12 -9 -10 -27 1 -4 -7 -14 -18 -24
-15 -13 -17 -22 -9 -36 7 -15 6 -19 -6 -19 -8 0 -15 -5 -15 -11 0 -5 5 -7 11
-4 7 5 8 1 1 -11 -5 -11 -16 -32 -24 -49 -9 -16 -13 -36 -10 -44 3 -8 0 -11
-7 -7 -10 7 -16 -13 -12 -38 1 -5 -6 -18 -16 -29 -10 -11 -12 -17 -5 -13 14 9
16 -6 2 -20 -5 -5 -11 -29 -12 -52 -1 -22 -5 -39 -9 -36 -4 2 -10 0 -13 -5 -4
-5 -1 -13 5 -17 8 -5 9 -3 4 6 -5 8 -4 11 3 6 10 -6 7 -28 -8 -51 -3 -5 -6
-32 -6 -60 1 -32 -4 -55 -14 -63 -8 -8 -9 -11 -2 -7 14 7 15 -18 3 -50 -5 -11
-4 -28 1 -39 7 -13 7 -16 -1 -12 -15 10 -14 -7 2 -23 10 -11 10 -13 0 -7 -7 4
-13 2 -13 -3 0 -6 6 -11 13 -11 7 0 8 -3 2 -8 -15 -11 -17 -72 -3 -72 9 0 9
-3 0 -12 -8 -8 -9 -15 -1 -25 9 -9 8 -17 -1 -28 -11 -13 -8 -19 11 -17 9 1 4
-36 -6 -45 -4 -5 -5 -3 -1 4 3 6 2 14 -3 17 -11 7 -8 -8 7 -47 15 -36 15 -50
1 -41 -8 4 -8 0 0 -15 7 -11 9 -21 6 -21 -3 0 -1 -10 6 -21 6 -12 7 -19 2 -16
-5 3 -9 -3 -9 -14 0 -21 12 -26 19 -6 2 6 3 -14 3 -45 -1 -32 2 -58 5 -58 4 0
5 -10 1 -22 -4 -16 -2 -19 9 -13 12 7 12 6 1 -7 -10 -13 -10 -18 -1 -24 8 -5
9 -3 4 6 -5 8 -4 11 3 6 6 -4 9 -13 5 -21 -3 -9 2 -27 12 -41 9 -14 15 -37 12
-50 -3 -17 0 -24 12 -24 14 0 14 -2 1 -10 -10 -6 -11 -10 -2 -10 6 0 12 -7 12
-16 0 -8 4 -13 8 -10 4 2 9 -9 10 -27 2 -17 8 -37 15 -46 10 -12 9 -13 -3 -7
-11 6 -11 4 1 -6 9 -7 15 -21 13 -30 -1 -9 4 -19 12 -22 8 -3 14 -17 14 -31 0
-18 4 -24 12 -19 8 5 9 2 5 -9 -3 -10 -2 -17 4 -17 6 0 7 -4 4 -10 -3 -5 1
-10 9 -10 11 0 16 -10 16 -31 0 -16 4 -28 9 -25 9 6 41 -52 41 -72 0 -6 9 -17
21 -25 11 -8 21 -24 22 -35 0 -11 5 -18 9 -16 4 3 8 0 8 -6 0 -7 7 -10 15 -6
13 5 14 2 4 -15 -8 -15 -8 -19 0 -15 7 5 11 -2 11 -16 0 -16 3 -19 8 -10 6 9
12 5 20 -13 7 -15 8 -24 3 -21 -5 3 -8 0 -7 -7 0 -6 -3 -13 -8 -14 -5 -1 -12
-7 -17 -15 -5 -7 -13 -14 -19 -14 -5 -1 -15 -2 -21 -3 -5 0 -7 -5 -4 -11 3 -5
-3 -10 -15 -10 -12 0 -18 -4 -15 -10 3 -5 -3 -10 -15 -10 -11 0 -23 -6 -26
-14 -3 -8 -15 -13 -26 -11 -17 4 -18 2 -6 -12 10 -13 10 -15 0 -9 -7 4 -23 1
-37 -8 -23 -15 -51 -23 -83 -25 -7 -1 -11 -5 -8 -10 3 -5 -7 -8 -24 -7 -20 1
-26 -1 -20 -9 6 -7 1 -12 -15 -13 -47 -3 -54 -5 -49 -14 5 -7 -36 -13 -60 -9
-5 1 -6 -6 -2 -15 5 -14 4 -15 -9 -4 -8 7 -15 8 -15 3 0 -5 -17 -8 -37 -8 -48
1 -65 -4 -56 -19 4 -6 -2 -4 -12 4 -11 9 -16 10 -11 3 9 -17 -6 -17 -23 0 -10
8 -12 8 -7 0 4 -7 0 -12 -11 -11 -59 1 -139 -5 -148 -12 -14 -10 -45 -9 -39 2
3 4 -2 8 -11 8 -9 0 -14 -4 -11 -8 3 -5 -1 -9 -9 -9 -8 0 -15 5 -15 10 0 5 -8
3 -17 -4 -11 -10 -14 -10 -9 -1 4 6 3 12 -1 12 -5 0 -15 -6 -22 -12 -8 -8 -11
-8 -8 -2 4 8 -3 12 -21 12 -97 1 -139 5 -151 15 -12 10 -13 9 -7 -3 4 -8 0 -6
-8 4 -14 17 -16 18 -16 3 0 -9 -5 -17 -11 -17 -5 0 -8 4 -5 9 3 5 -1 12 -10
15 -10 4 -13 2 -8 -7 6 -9 5 -9 -7 0 -9 7 -25 11 -38 8 -12 -2 -19 0 -16 4 5
10 -28 21 -63 21 -13 0 -20 4 -17 10 4 6 -8 10 -29 10 -20 0 -36 5 -36 11 0 5
-4 8 -9 4 -6 -3 -14 3 -20 12 -6 11 -11 13 -11 5 0 -10 -4 -9 -16 3 -9 9 -22
14 -29 12 -6 -3 -17 4 -24 15 -9 15 -15 17 -26 8 -11 -9 -17 -7 -26 8 -7 11
-19 18 -26 15 -8 -3 -13 2 -13 13 0 16 -2 17 -10 4 -6 -10 -10 -11 -10 -2 0 6
-5 12 -11 12 -6 0 -17 7 -26 15 -8 8 -19 13 -24 10 -5 -4 -6 1 -3 10 4 9 3 15
-2 14 -23 -4 -45 2 -39 11 3 6 -2 10 -13 10 -21 0 -56 33 -45 43 3 4 1 7 -4 7
-6 0 -14 -6 -16 -12 -3 -7 -6 -3 -6 10 -1 15 -7 22 -22 22 -14 0 -19 5 -16 14
4 10 0 13 -14 11 -11 -2 -18 -1 -16 3 2 4 -4 15 -15 25 -10 9 -18 14 -19 10 0
-5 -4 2 -10 15 -6 15 -13 21 -21 16 -10 -6 -10 -4 0 8 11 13 10 16 -5 14 -10
0 -17 5 -15 12 1 7 -8 12 -20 12 -19 0 -20 2 -8 10 13 9 13 10 0 11 -8 1 -18
1 -23 0 -4 0 -6 2 -6 6 3 20 -2 34 -11 28 -5 -3 -10 -1 -10 4 0 22 -2 26 -16
34 -8 5 -12 12 -9 18 4 5 -1 9 -9 9 -9 0 -16 7 -16 15 0 7 -6 18 -13 22 -6 4
-18 20 -26 35 -8 15 -18 25 -23 22 -4 -3 -8 6 -8 20 0 14 -4 26 -10 26 -5 0
-10 9 -10 19 0 11 -5 23 -12 27 -7 5 -8 3 -3 -6 6 -9 4 -11 -4 -5 -7 4 -11 16
-8 26 3 12 -2 24 -14 32 -10 8 -17 16 -14 19 8 8 -32 78 -41 70 -5 -4 -2 2 6
12 10 13 10 17 3 12 -9 -5 -13 2 -13 23 0 17 -4 31 -10 31 -5 0 -10 11 -10 24
0 13 -5 26 -10 28 -6 2 -11 24 -13 50 -1 25 -5 44 -9 41 -9 -5 -9 -5 -12 51
-2 21 -8 41 -13 45 -6 3 -12 26 -13 51 -4 100 -5 116 -14 129 -6 10 -6 12 2 7
16 -10 15 7 0 23 -10 11 -10 13 0 7 15 -9 16 17 2 44 -7 13 -7 21 0 25 7 4 6
13 -1 27 -6 11 -7 18 -1 15 5 -4 8 11 8 36 -1 23 2 48 7 55 6 7 6 12 0 12 -5
0 -8 13 -5 30 3 18 9 27 16 23 6 -3 6 0 -1 8 -7 7 -13 18 -13 24 0 5 5 3 10
-5 8 -12 10 -10 10 10 0 43 3 60 12 60 4 0 8 5 8 11 0 5 -4 7 -10 4 -17 -11
-11 7 8 21 15 12 15 15 2 24 -8 5 -10 10 -5 10 6 0 12 10 12 22 1 13 7 24 13
26 5 2 10 14 10 27 0 13 4 27 10 30 5 3 10 17 10 31 0 14 4 23 9 19 6 -3 8 4
6 15 -2 11 0 20 4 20 5 0 8 8 7 18 0 10 5 16 13 14 12 -3 12 -1 0 14 -9 12 -9
15 -1 10 7 -4 12 -1 12 8 0 9 5 16 10 16 6 0 10 7 10 16 0 8 7 22 16 31 8 9
13 22 10 29 -3 8 1 14 9 14 8 0 15 9 15 19 0 11 5 21 11 23 5 2 11 12 13 21 1
10 9 23 17 28 8 5 11 9 7 9 -4 0 6 14 22 30 19 20 27 36 23 48 -5 14 -3 13 10
-3 16 -20 16 -19 17 8 0 16 4 26 10 22 6 -3 10 -1 10 6 0 6 8 18 18 26 9 8 11
11 3 7 -10 -5 -12 -3 -7 5 5 7 15 10 23 7 8 -3 11 -1 8 4 -3 6 -1 10 5 10 6 0
8 4 5 10 -3 6 1 7 10 4 11 -5 14 -2 9 10 -4 11 -2 16 7 14 8 -2 13 3 12 10 -2
6 4 12 12 12 8 0 15 7 15 15 0 8 6 14 13 12 6 -1 11 3 10 10 -2 7 4 10 12 7
10 -4 15 0 15 11 0 9 4 14 9 10 5 -3 16 4 25 16 8 12 19 18 25 14 7 -4 10 -1
9 7 -2 7 3 12 11 10 12 -3 12 -1 1 13 -7 9 -9 15 -4 14 25 -4 54 2 49 11 -3 6
3 10 14 10 12 0 21 7 21 16 0 8 5 12 11 9 6 -4 20 2 32 12 34 30 102 69 92 52
-8 -12 -6 -12 8 0 9 7 14 17 11 22 -3 5 11 9 30 9 22 0 36 5 36 13 0 8 4 7 10
-3 5 -8 10 -10 10 -4 0 5 7 19 15 30 15 19 15 19 9 -1 -5 -19 -5 -19 9 -2 8
10 28 17 48 17 26 0 30 3 19 10 -12 7 -8 10 15 10 44 0 79 11 65 20 -7 4 9 7
35 5 28 -1 52 4 60 12 10 10 14 10 18 0 3 -9 7 -9 18 -1 8 6 41 12 74 13 33 1
64 7 70 12 12 12 18 12 10 -1z m2410 0 c-3 -5 1 -10 10 -10 10 0 13 5 9 13 -5
7 0 6 11 -3 11 -9 16 -10 11 -2 -4 6 -2 12 3 12 6 0 11 -5 11 -11 0 -8 5 -8
15 1 10 9 15 9 15 1 0 -6 5 -11 11 -11 5 0 7 5 4 10 -3 6 1 10 10 10 9 0 14
-4 11 -8 -2 -4 5 -9 17 -9 17 -2 19 0 7 7 -9 6 -10 10 -3 10 6 0 15 -4 18 -10
3 -5 11 -10 16 -10 6 0 8 4 5 8 -3 5 1 9 9 9 8 0 12 -4 9 -9 -3 -4 27 -8 66
-8 42 0 69 -4 65 -9 -6 -10 14 -8 50 4 17 6 18 5 5 -5 -13 -10 -11 -11 8 -7
13 3 22 0 22 -6 0 -7 5 -5 10 3 5 8 10 10 10 4 0 -5 14 -9 30 -8 30 2 41 -10
18 -19 -7 -3 2 -4 20 -3 20 2 41 -4 57 -15 15 -13 26 -16 30 -9 5 8 11 8 19 1
7 -6 16 -8 19 -4 4 3 7 -1 7 -10 0 -9 5 -17 11 -17 5 0 7 5 4 10 -4 6 5 5 19
-2 14 -6 26 -15 26 -20 0 -4 12 -8 26 -8 14 0 23 -4 19 -10 -4 -6 7 -10 24
-10 22 0 31 -5 31 -17 0 -9 3 -13 6 -10 4 3 16 1 28 -5 11 -7 28 -13 36 -14 8
-2 20 -10 26 -18 6 -9 14 -13 17 -9 4 3 7 -1 7 -11 0 -9 5 -14 10 -11 6 3 10
-1 10 -9 0 -10 9 -16 26 -16 14 0 23 -4 19 -10 -3 -5 -1 -10 5 -10 17 0 -8
-40 -30 -48 -10 -4 -20 -11 -20 -17 -1 -5 -6 -9 -11 -8 -5 2 -8 0 -8 -5 4 -24
-3 -42 -16 -42 -8 0 -14 -3 -13 -7 3 -15 -22 -63 -32 -63 -6 0 -8 -4 -5 -10 3
-5 1 -10 -5 -10 -6 0 -8 -5 -4 -12 5 -7 2 -9 -8 -5 -12 4 -15 0 -14 -18 2 -13
-7 -34 -20 -49 -13 -13 -25 -39 -26 -56 -2 -21 -7 -29 -16 -25 -9 3 -12 -2
-10 -18 2 -13 -2 -21 -9 -20 -7 2 -12 0 -12 -5 4 -25 -2 -62 -10 -58 -5 3 -11
-4 -14 -15 -4 -13 -10 -18 -18 -13 -8 4 -10 3 -5 -5 4 -6 11 -9 15 -7 4 3 8
-1 8 -9 0 -8 -4 -12 -8 -10 -9 6 -21 -24 -13 -36 3 -5 1 -9 -5 -9 -6 0 -8 -7
-5 -15 4 -8 1 -15 -5 -15 -6 0 -11 -16 -11 -36 0 -19 -4 -33 -8 -30 -4 2 -9
-7 -10 -22 -1 -14 -8 -29 -15 -34 -9 -6 -9 -8 2 -8 11 0 11 -3 0 -17 -9 -11
-10 -14 -2 -9 9 5 11 2 7 -8 -3 -9 -10 -13 -15 -10 -5 3 -9 0 -9 -5 0 -6 6
-11 13 -11 9 0 8 -3 -2 -9 -7 -5 -11 -13 -7 -19 3 -6 2 -13 -3 -16 -5 -3 -7
-16 -3 -28 3 -13 1 -19 -5 -15 -6 4 -10 -5 -11 -21 -1 -115 -3 -142 -13 -142
-5 0 -7 5 -3 12 5 7 3 8 -6 3 -10 -6 -10 -10 3 -20 13 -9 14 -14 4 -25 -7 -7
-7 -10 -1 -7 6 3 11 0 11 -8 0 -8 -4 -12 -9 -9 -4 3 -8 -2 -8 -11 0 -9 4 -14
8 -11 11 7 8 -31 -3 -41 -4 -5 -5 -2 0 6 5 9 4 12 -3 7 -6 -4 -9 -13 -6 -21 4
-8 9 -13 13 -10 4 2 8 -2 8 -10 0 -8 -4 -12 -8 -9 -9 5 -17 -17 -11 -33 2 -7
9 -10 16 -6 6 4 3 -5 -6 -19 -13 -19 -15 -29 -6 -34 7 -5 8 -3 3 6 -5 8 -4 11
2 7 13 -8 9 -53 -5 -50 -6 1 -8 -7 -4 -19 5 -21 6 -21 13 -2 5 12 7 -1 8 -36
0 -59 5 -93 17 -112 4 -7 3 -8 -4 -4 -7 4 -12 2 -12 -3 0 -6 6 -11 13 -11 8 0
7 -4 -3 -10 -13 -8 -13 -10 1 -10 13 0 16 -8 14 -39 -1 -21 2 -45 7 -53 7 -9
8 -7 3 7 -5 16 -4 17 6 8 10 -10 9 -16 -2 -29 -8 -10 -9 -15 -3 -11 7 4 11 -7
12 -30 1 -20 6 -41 12 -47 5 -5 10 -22 10 -37 0 -15 6 -29 14 -32 9 -4 12 -14
9 -26 -3 -13 -1 -21 7 -21 9 0 10 -3 1 -14 -9 -11 -8 -15 5 -20 9 -4 14 -9 11
-13 -4 -3 -1 -15 5 -27 7 -11 11 -24 10 -28 -1 -5 3 -8 9 -8 5 0 7 -4 4 -10
-3 -5 0 -10 8 -10 7 0 14 -7 14 -15 0 -8 -4 -15 -9 -15 -5 0 -3 -6 4 -14 7 -8
16 -12 21 -9 4 2 7 1 6 -4 -1 -4 -1 -21 0 -38 1 -23 3 -27 11 -15 8 12 10 9
10 -12 0 -16 4 -28 9 -28 5 0 12 -7 15 -16 6 -15 4 -15 -11 -3 -16 13 -17 12
-4 -3 7 -10 20 -18 27 -18 8 0 11 -6 8 -15 -4 -8 -1 -15 6 -15 6 0 8 -4 5 -10
-3 -5 1 -10 10 -10 9 0 14 -4 10 -9 -3 -5 2 -16 10 -24 8 -9 15 -20 15 -26 0
-6 5 -11 10 -11 6 0 10 -11 10 -25 0 -15 5 -24 13 -23 6 2 11 -3 9 -9 -1 -7 5
-13 14 -13 8 0 12 -4 9 -10 -3 -5 1 -10 10 -10 13 0 14 -4 4 -21 -8 -15 -8
-19 0 -15 6 4 11 3 11 -3 0 -5 -18 -17 -40 -27 -21 -10 -37 -21 -34 -26 3 -4
0 -8 -5 -8 -6 0 -11 6 -12 13 0 6 -4 2 -9 -10 -5 -13 -14 -23 -20 -23 -6 0
-18 -7 -26 -15 -8 -8 -22 -11 -31 -8 -10 4 -14 2 -9 -5 8 -13 -29 -26 -46 -16
-8 5 -9 2 -5 -9 5 -14 0 -17 -26 -18 -18 -1 -36 -1 -40 0 -5 1 -6 -3 -2 -9 6
-9 -8 -14 -28 -11 -4 1 -10 -6 -14 -15 -5 -13 -7 -13 -14 -2 -7 10 -9 10 -9 1
0 -7 -12 -13 -26 -13 -14 0 -23 -4 -19 -10 4 -6 -5 -10 -21 -10 -15 0 -33 -8
-40 -17 -13 -17 -14 -17 -7 1 6 19 5 19 -16 4 -13 -9 -30 -14 -39 -11 -11 5
-13 3 -7 -8 6 -11 5 -12 -5 -2 -10 9 -18 9 -34 1 -24 -14 -68 -19 -60 -7 2 4
0 11 -6 14 -6 4 -9 1 -8 -6 4 -16 1 -16 -108 -18 -47 0 -83 -4 -81 -8 3 -5 -6
-9 -20 -10 -19 -1 -22 1 -12 8 10 6 5 9 -16 9 -21 0 -26 -3 -16 -9 9 -6 5 -8
-14 -8 -17 0 -22 2 -15 7 8 5 -1 8 -21 9 -125 3 -227 12 -244 23 -6 3 -18 4
-27 3 -11 -2 -18 3 -19 13 0 14 -2 13 -9 -3 -7 -17 -9 -17 -9 -2 -1 13 -10 17
-36 17 -19 0 -35 5 -35 10 0 6 -11 10 -25 10 -14 0 -25 5 -25 11 0 8 -6 7 -17
-2 -9 -8 -14 -9 -11 -4 4 6 -2 17 -14 24 -16 10 -19 10 -13 -1 3 -7 0 -5 -8 5
-9 10 -18 18 -21 18 -28 -3 -45 2 -63 18 -16 15 -23 17 -33 8 -7 -7 -11 -7 -8
-2 3 6 -3 18 -14 28 -12 11 -18 13 -19 5 0 -10 -2 -10 -6 0 -2 6 -12 12 -21
12 -15 0 -15 2 -2 10 12 8 11 10 -7 10 -13 0 -23 5 -23 11 0 5 -4 7 -10 4 -5
-3 -10 -1 -10 5 0 7 -7 10 -15 6 -9 -3 -15 0 -15 10 0 8 -4 12 -10 9 -5 -3
-10 -1 -10 5 0 6 -5 8 -10 5 -14 -9 -8 16 8 33 7 8 10 17 8 21 -3 4 6 15 19
25 14 10 22 22 19 27 -3 5 3 9 13 10 10 0 13 3 6 6 -10 3 -10 7 0 18 7 7 15
11 20 8 4 -2 7 5 7 15 0 11 7 25 15 32 8 7 12 16 9 21 -3 5 1 12 10 15 8 3 13
11 10 18 -3 7 2 19 11 26 8 7 15 21 15 31 0 11 6 19 14 19 9 0 13 7 11 20 -2
11 1 23 7 26 6 4 8 2 4 -4 -3 -6 -3 -13 2 -16 5 -3 9 0 10 7 3 42 7 55 14 51
8 -5 12 18 9 45 -2 7 2 10 8 6 6 -3 12 -3 12 2 1 4 3 21 5 38 2 16 8 31 14 33
5 2 10 10 10 17 0 7 6 25 14 40 8 15 13 36 11 45 -2 10 3 21 11 24 8 3 14 11
14 18 0 9 -3 8 -10 -2 -6 -9 -10 -10 -10 -3 0 6 5 15 11 18 6 4 8 13 5 21 -3
9 1 14 12 14 15 0 15 2 2 10 -12 8 -12 10 -1 10 11 0 11 3 0 17 -10 11 -10 14
-1 9 12 -7 17 25 13 79 -2 17 0 17 8 5 8 -12 11 -7 12 20 1 35 6 137 8 153 1
5 5 6 9 3 15 -9 7 55 -8 65 -12 9 -12 10 4 5 17 -6 17 -5 5 11 -8 9 -9 14 -4
11 6 -4 11 11 11 38 1 26 -3 44 -10 44 -6 0 -4 5 4 10 8 5 11 10 5 10 -5 0 -3
5 5 10 8 5 10 10 4 10 -6 0 -9 13 -6 31 4 25 2 30 -9 24 -11 -7 -12 -6 -2 6 7
9 8 20 3 29 -4 7 -5 23 0 35 5 12 4 29 -3 41 -15 25 -20 57 -8 50 11 -7 9 13
-2 32 -5 6 -6 16 -2 21 3 6 -3 14 -12 20 -16 9 -16 10 -1 11 11 0 15 6 11 20
-3 11 -8 18 -12 16 -4 -3 -8 4 -8 15 -1 12 3 17 10 13 8 -5 8 -3 0 7 -7 7 -13
30 -13 52 0 23 -4 36 -10 32 -6 -4 -10 7 -10 24 0 17 -5 31 -11 31 -8 0 -8 5
1 15 10 12 9 15 -4 15 -13 0 -16 7 -13 29 3 20 0 31 -9 35 -8 3 -14 14 -14 24
0 10 -6 24 -12 31 -10 11 -10 13 0 7 6 -4 12 -2 12 3 0 6 -6 11 -14 11 -8 0
-15 9 -15 20 -1 11 -1 29 -2 40 0 11 -4 18 -10 15 -5 -4 -9 1 -9 9 0 9 -4 16
-10 16 -5 0 -10 13 -10 29 0 17 -6 31 -16 35 -8 3 -12 10 -9 16 3 5 -1 10 -9
10 -10 0 -16 9 -16 24 0 13 -4 26 -9 28 -5 2 -11 10 -13 18 -2 8 -7 18 -13 22
-5 4 -11 12 -11 18 -1 5 -2 15 -3 21 0 5 -5 7 -11 4 -6 -4 -10 5 -10 20 0 14
-7 28 -15 31 -8 4 -12 10 -9 15 3 5 -3 9 -12 9 -10 0 -15 3 -11 6 3 3 -4 16
-16 28 -12 11 -22 28 -22 36 0 9 -8 14 -20 12 -15 -2 -16 0 -7 6 8 5 14 13 15
18 1 5 8 8 15 8 10 -2 10 1 1 13 -7 8 -8 13 -3 12 22 -4 45 2 40 10 -7 11 22
23 35 15 5 -3 9 2 9 10 0 9 7 16 15 16 8 0 15 5 15 10 0 6 7 10 16 10 9 0 22
7 28 15 6 8 25 16 42 17 23 1 30 6 26 17 -4 10 -1 12 7 6 8 -4 17 -2 22 6 7
12 9 12 9 0 0 -9 7 -6 20 9 13 15 20 18 20 9 1 -10 5 -9 15 5 8 10 20 16 28
13 8 -3 20 -1 28 4 12 7 12 9 0 9 -8 0 -11 3 -8 6 4 4 14 1 24 -7 11 -9 14
-10 9 -1 -5 8 -1 12 13 12 11 0 23 5 26 10 3 6 12 10 18 10 7 0 6 -4 -3 -10
-17 -11 -10 -13 14 -4 9 3 13 11 10 16 -4 7 7 9 30 6 27 -3 36 0 37 12 0 10 3
9 9 -5 5 -11 9 -14 9 -7 1 7 6 10 11 7 6 -3 10 0 10 7 0 9 3 9 10 -2 6 -9 10
-10 10 -3 0 7 21 11 61 12 34 0 67 5 72 10 14 14 20 14 12 1z m2473 -8 c8 -1
11 2 7 8 -3 5 1 10 10 10 9 0 13 -4 10 -10 -3 -5 -1 -10 4 -10 6 0 11 6 12 13
0 8 2 8 6 -2 5 -11 7 -11 14 0 6 10 9 11 9 2 0 -7 5 -13 11 -13 5 0 7 5 4 10
-3 6 -2 10 4 10 5 0 12 -6 15 -12 5 -10 7 -10 12 0 3 6 10 12 15 12 6 0 7 -4
4 -10 -3 -6 5 -10 19 -10 13 0 27 6 29 13 4 8 6 7 6 -3 1 -12 12 -14 56 -12
38 3 55 0 55 -8 0 -9 3 -10 14 -1 10 8 16 8 24 -2 7 -7 27 -13 47 -12 26 2 35
-2 35 -13 0 -13 3 -12 15 4 11 13 14 14 13 4 -2 -10 7 -16 25 -18 18 -2 25 -7
20 -15 -4 -8 -1 -7 9 1 13 10 18 10 24 1 5 -8 3 -9 -6 -4 -8 5 -11 4 -7 -2 4
-6 17 -8 31 -6 13 3 27 -1 31 -8 5 -8 4 -10 -3 -5 -7 4 -12 2 -12 -4 0 -7 8
-9 19 -5 20 6 101 -24 101 -37 0 -5 14 -8 30 -8 20 0 30 -5 30 -15 0 -10 7
-15 18 -13 9 2 16 -2 15 -9 -2 -7 4 -10 12 -7 9 4 15 0 15 -10 0 -10 9 -16 24
-16 14 0 31 -9 39 -21 11 -15 16 -17 20 -7 4 9 6 7 6 -4 1 -10 7 -18 15 -18 8
0 17 -7 20 -16 4 -10 2 -13 -6 -8 -8 5 -9 2 -5 -10 5 -14 3 -17 -8 -12 -11 4
-15 -1 -15 -19 0 -16 -6 -25 -16 -25 -8 0 -12 -5 -9 -10 3 -6 -1 -13 -9 -16
-9 -3 -14 -10 -11 -14 3 -4 -2 -10 -10 -14 -8 -3 -15 -14 -15 -23 0 -10 -9
-25 -19 -33 -11 -7 -18 -17 -15 -22 3 -4 0 -8 -5 -8 -6 0 -11 -8 -11 -17 0
-10 -7 -27 -15 -37 -8 -10 -12 -22 -10 -26 2 -4 -7 -18 -20 -30 -14 -13 -25
-34 -25 -47 0 -14 -4 -21 -10 -18 -5 3 -10 -1 -10 -9 0 -9 -6 -16 -12 -16 -8
0 -9 -3 -3 -8 6 -4 11 -13 13 -21 3 -12 0 -12 -12 -2 -12 10 -14 9 -11 -6 1
-10 -2 -24 -8 -31 -9 -11 -17 -48 -20 -89 0 -6 -6 -9 -12 -7 -8 3 -11 -8 -11
-34 1 -29 -2 -38 -12 -35 -7 3 -12 2 -11 -3 1 -5 1 -25 0 -44 -1 -27 -4 -31
-11 -20 -7 11 -10 7 -11 -20 -1 -19 -1 -41 0 -49 2 -8 -2 -10 -11 -5 -11 6
-11 5 0 -8 9 -11 9 -17 2 -20 -6 -2 -12 -33 -14 -69 -2 -37 -7 -73 -12 -80
-12 -20 -12 -92 0 -108 8 -11 8 -13 0 -8 -8 5 -11 -12 -10 -58 0 -36 -3 -65
-7 -65 -5 0 -5 -5 -1 -12 12 -19 12 -68 1 -68 -8 0 -8 -3 0 -11 6 -6 9 -18 6
-25 -3 -8 0 -21 6 -28 8 -10 9 -16 1 -21 -5 -3 -10 -11 -10 -16 0 -6 5 -7 10
-4 6 3 10 1 10 -4 0 -6 -4 -11 -9 -11 -5 0 -8 -11 -7 -24 0 -13 6 -22 12 -19
6 2 11 -3 11 -11 0 -8 -4 -13 -8 -10 -4 2 -11 0 -14 -6 -4 -6 -1 -9 6 -8 8 2
14 -10 16 -29 1 -19 -2 -33 -8 -33 -6 0 -1 -9 12 -21 13 -11 19 -18 13 -15 -7
3 -15 -1 -18 -10 -5 -12 -2 -15 10 -10 10 4 15 0 13 -12 -1 -9 0 -39 1 -67 2
-41 3 -45 10 -25 8 24 8 24 11 -7 1 -18 2 -39 3 -45 1 -7 5 -16 9 -19 4 -3 9
-16 10 -27 1 -12 5 -22 9 -22 4 0 4 -7 1 -17 -5 -12 -3 -14 8 -8 11 7 11 5 -1
-10 -9 -11 -10 -16 -2 -11 8 5 12 0 12 -13 0 -12 3 -20 8 -20 19 3 22 -3 12
-21 -7 -14 -8 -20 0 -20 6 0 8 -11 6 -25 -3 -15 -1 -23 5 -20 5 4 6 11 3 17
-4 7 -2 8 4 4 7 -4 12 -21 12 -37 0 -18 4 -28 10 -24 6 4 10 -7 10 -24 0 -21
5 -31 16 -31 8 0 13 -4 9 -9 -3 -5 2 -16 10 -24 8 -9 15 -26 16 -39 0 -22 1
-22 9 -3 7 17 9 16 9 -9 1 -16 10 -37 23 -47 11 -11 17 -19 12 -19 -5 0 -3 -4
4 -9 7 -4 14 -17 15 -28 1 -14 6 -19 16 -15 8 3 12 1 8 -5 -3 -5 12 -29 33
-53 22 -24 37 -46 34 -49 -3 -3 -9 1 -14 9 -6 8 -10 10 -10 4 0 -15 25 -36 33
-27 4 3 7 2 7 -3 0 -11 -41 -39 -52 -36 -5 1 -8 -3 -8 -9 0 -6 -9 -9 -19 -6
-14 3 -18 1 -14 -9 3 -9 -1 -14 -12 -14 -10 0 -14 -5 -9 -12 4 -7 4 -10 -1 -6
-11 11 -47 -11 -39 -24 4 -7 3 -8 -5 -4 -15 10 -53 -3 -46 -15 4 -5 -8 -9 -25
-9 -18 0 -29 -4 -25 -10 4 -6 -5 -10 -19 -10 -14 0 -26 -5 -26 -12 0 -6 -3 -8
-7 -5 -3 4 -12 2 -19 -4 -8 -6 -20 -9 -29 -5 -8 3 -14 0 -12 -6 1 -7 -7 -13
-18 -15 -11 -1 -30 -3 -41 -5 -12 -1 -20 -7 -18 -13 3 -7 -9 -10 -31 -10 -21
1 -35 -3 -35 -10 0 -8 -15 -11 -40 -10 -22 1 -40 -2 -40 -6 0 -5 -7 -5 -17 -2
-12 5 -14 3 -8 -8 7 -11 5 -11 -10 1 -10 8 -16 10 -12 4 4 -8 -4 -11 -26 -11
-114 0 -161 -4 -148 -12 10 -7 7 -9 -12 -8 -14 1 -23 5 -20 10 2 4 -3 7 -12 7
-9 0 -14 -4 -10 -9 6 -10 -17 -8 -49 5 -13 5 -17 4 -13 -3 8 -12 -11 -12 -29
0 -6 3 -44 7 -83 8 -45 1 -71 6 -71 13 0 7 -3 7 -8 1 -12 -16 -32 -16 -32 0 0
13 -4 14 -21 5 -13 -7 -25 -8 -32 -2 -7 5 -23 8 -37 7 -14 -1 -32 2 -40 7 -12
8 -11 8 3 4 10 -3 16 -2 13 3 -3 5 -25 9 -48 9 -24 1 -45 6 -49 15 -5 7 -21
12 -39 11 -24 -2 -28 1 -20 11 8 9 4 12 -15 10 -14 -2 -28 2 -32 7 -4 7 -1 8
7 3 9 -6 11 -4 5 4 -4 7 -18 11 -31 8 -13 -2 -24 0 -24 6 0 6 -3 7 -7 4 -3 -4
-12 1 -20 11 -9 10 -11 11 -7 2 7 -13 5 -13 -9 -1 -9 7 -14 18 -10 25 4 6 -2
4 -12 -4 -15 -12 -17 -12 -10 -1 6 11 4 13 -8 8 -9 -3 -18 0 -21 9 -3 8 -13
14 -21 14 -10 0 -13 5 -9 13 5 7 0 6 -11 -3 -11 -9 -16 -10 -11 -2 4 7 2 12
-5 12 -6 0 -20 9 -30 21 -10 12 -23 18 -30 13 -8 -4 -9 -3 -5 4 5 8 0 12 -14
12 -17 0 -19 3 -11 19 6 10 7 21 4 25 -3 3 -2 6 4 6 6 0 13 9 16 20 3 11 12
20 21 20 10 0 13 5 9 17 -4 11 -3 14 5 9 8 -5 12 0 12 14 0 11 6 23 14 26 9 3
12 12 9 21 -5 12 -3 14 7 8 10 -6 12 -4 7 9 -4 10 -3 15 3 11 6 -3 10 1 10 10
0 8 7 18 15 21 8 4 12 10 9 15 -3 5 3 9 13 9 14 0 15 2 4 9 -11 7 -10 11 7 22
16 10 18 16 10 27 -9 10 -8 12 3 10 8 -2 13 3 11 10 -1 6 2 12 8 12 5 0 10 9
10 19 0 11 7 26 15 34 8 8 11 18 7 22 -4 3 2 13 12 21 11 8 16 14 12 14 -5 0
-1 12 9 26 11 18 13 24 4 19 -8 -5 -6 1 4 12 9 11 14 23 10 27 -5 4 1 14 11
22 14 10 16 14 5 14 -12 0 -12 2 0 9 8 5 11 16 8 24 -3 9 -1 17 5 19 10 4 15
24 17 71 1 12 5 16 14 11 7 -5 6 0 -3 11 -9 11 -10 16 -2 11 8 -5 12 0 12 16
0 13 6 30 13 37 9 11 9 14 0 18 -10 3 -9 8 2 20 13 12 13 18 3 31 -11 13 -11
14 1 7 11 -6 13 -4 8 8 -4 10 -1 17 6 18 9 0 8 2 -1 6 -10 4 -10 8 0 20 6 8
13 25 15 36 2 17 1 19 -7 7 -7 -12 -9 -10 -7 7 0 12 5 19 10 16 6 -3 8 8 5 26
-2 17 -2 31 1 31 3 0 5 25 4 56 -2 34 2 63 9 72 7 9 8 13 3 10 -7 -4 -11 43
-12 134 -1 86 -6 145 -12 151 -6 6 -11 18 -10 27 0 10 3 9 9 -5 8 -19 9 -19 9
3 1 12 -3 22 -9 22 -5 0 -10 5 -10 11 0 5 6 7 13 4 6 -4 5 -1 -3 7 -9 7 -15
20 -15 28 1 8 -3 21 -8 28 -6 8 -5 17 3 27 10 12 10 15 -4 15 -19 0 -21 11 -4
28 9 9 9 12 0 12 -7 0 -12 13 -12 30 0 17 -4 30 -10 30 -5 0 -10 10 -10 22 0
25 -17 81 -37 123 -13 28 -13 28 1 11 9 -11 16 -15 16 -9 0 6 -7 16 -15 23 -8
7 -15 19 -15 27 0 8 -5 11 -12 7 -10 -5 -10 -4 0 7 10 11 8 17 -10 32 -13 10
-17 16 -10 12 18 -9 15 6 -5 22 -10 8 -12 11 -5 8 11 -6 11 -3 0 14 -7 12 -17
21 -21 21 -5 0 -7 10 -5 23 2 13 -2 21 -9 20 -8 -2 -13 8 -13 27 0 17 -4 30
-9 30 -9 0 -24 38 -22 53 1 5 -2 6 -6 4 -5 -2 -17 5 -28 16 -11 11 -13 16 -5
12 12 -7 13 -6 3 7 -7 8 -9 19 -5 23 4 5 0 6 -8 3 -11 -4 -16 1 -18 15 0 12
-6 23 -12 25 -5 2 -10 10 -10 18 0 9 -4 12 -10 9 -5 -3 -10 3 -10 13 0 11 -10
26 -23 35 -41 27 -26 86 23 90 11 1 20 8 20 15 0 8 6 12 15 8 8 -3 14 0 12 6
-1 7 5 12 13 13 8 1 14 7 12 15 -3 12 -1 13 9 3 7 -7 18 -13 23 -13 6 0 4 4
-4 10 -12 7 -11 10 5 15 40 14 80 35 66 35 -8 0 -11 3 -8 6 4 4 15 1 24 -7 10
-7 15 -9 11 -5 -9 11 40 38 53 30 5 -3 9 0 9 6 0 7 7 10 15 6 8 -3 14 0 12 7
-1 7 10 12 31 12 21 0 32 5 32 14 0 11 3 11 17 0 9 -8 14 -9 10 -2 -8 13 46
29 63 18 5 -3 7 0 4 8 -3 9 1 14 13 14 63 0 84 4 77 15 -5 7 -3 8 7 2 20 -12
40 -14 33 -3 -3 6 9 9 28 9 93 -3 148 2 148 13 0 8 3 8 8 2 4 -5 13 -11 20
-13z m2358 -2 c9 0 13 4 10 8 -3 5 1 9 9 9 8 0 12 -3 10 -7 -2 -4 2 -7 10 -7
8 0 12 4 9 9 -3 4 0 8 5 8 6 0 11 -4 11 -10 0 -5 5 -10 11 -10 5 0 7 5 4 10
-3 6 -1 10 4 10 6 0 11 -6 11 -12 0 -9 4 -8 10 2 9 13 10 13 10 0 0 -13 1 -13
10 0 9 13 10 13 10 0 0 -13 1 -13 10 0 6 10 10 11 10 3 0 -7 5 -13 11 -13 5 0
7 5 4 10 -3 6 -1 10 4 10 6 0 11 -5 11 -11 0 -8 6 -7 17 2 11 10 14 10 9 2 -5
-10 5 -13 41 -14 26 -1 56 0 67 1 13 1 16 -2 10 -12 -6 -10 -4 -10 9 1 15 12
20 11 38 -5 19 -17 20 -17 13 2 -7 16 -5 17 7 7 8 -7 32 -13 52 -15 22 -1 36
-7 33 -13 -2 -6 8 -11 23 -12 50 -1 80 -7 75 -15 -3 -4 1 -8 8 -8 8 0 19 -5
26 -12 6 -6 26 -13 44 -15 18 -2 35 -8 36 -13 2 -6 15 -10 28 -10 13 0 24 -5
24 -11 0 -5 4 -8 9 -4 5 3 12 1 16 -5 4 -6 11 -8 16 -5 5 3 6 -1 3 -9 -4 -11
1 -14 21 -12 14 2 24 1 21 -1 -9 -9 19 -30 33 -25 9 3 12 1 7 -6 -5 -8 0 -12
14 -12 11 0 23 -7 26 -15 4 -8 15 -15 25 -15 10 0 19 -4 19 -10 0 -5 7 -10 15
-10 8 0 15 -7 15 -17 0 -9 3 -13 7 -10 3 4 12 -1 20 -11 8 -9 11 -11 7 -3 -5
9 -3 12 4 7 7 -4 12 -14 12 -22 0 -8 6 -14 14 -14 8 0 17 -7 20 -16 4 -10 12
-14 22 -10 14 6 15 4 4 -9 -7 -9 -9 -15 -4 -14 22 4 45 -2 40 -10 -3 -5 1 -12
10 -15 9 -3 12 -11 8 -18 -5 -8 -2 -9 10 -5 14 5 17 3 12 -8 -3 -9 0 -15 10
-15 8 0 12 -5 9 -10 -3 -6 2 -13 12 -17 24 -9 44 -29 36 -37 -4 -3 1 -6 10 -6
11 0 17 -8 17 -25 0 -14 5 -24 12 -22 7 1 14 -9 16 -22 3 -19 6 -21 13 -10 7
11 9 11 9 -3 0 -10 5 -18 10 -18 6 0 10 -9 10 -20 0 -11 7 -20 15 -20 8 0 15
-2 15 -4 0 -2 3 -12 7 -22 5 -13 3 -15 -7 -9 -9 5 -11 4 -6 -4 4 -6 12 -9 17
-6 5 4 9 0 9 -9 0 -8 5 -16 10 -18 6 -2 12 -13 13 -26 0 -12 4 -22 8 -22 4 0
11 -10 14 -21 6 -17 9 -19 17 -8 7 10 8 8 3 -8 -3 -12 -1 -24 4 -27 6 -4 8
-13 4 -22 -3 -9 0 -14 8 -12 9 2 13 -4 11 -16 -2 -10 1 -15 6 -12 6 3 8 -2 5
-14 -3 -11 0 -20 6 -20 6 0 11 -11 11 -24 0 -13 5 -26 10 -28 6 -2 11 -21 12
-43 1 -23 8 -46 17 -53 13 -11 13 -12 1 -6 -10 5 -8 -1 5 -16 12 -14 14 -20 5
-15 -13 7 -13 6 -2 -7 10 -13 10 -17 0 -21 -9 -4 -8 -6 3 -6 9 -1 16 -9 16
-18 0 -78 4 -113 13 -108 14 9 12 -8 -2 -24 -10 -11 -10 -13 0 -7 13 8 13 7
16 -159 1 -55 -2 -105 -7 -112 -4 -6 -3 -14 2 -17 6 -4 7 -16 2 -29 -4 -12 -6
-28 -3 -36 2 -8 0 -11 -5 -8 -5 3 -10 0 -10 -8 0 -8 3 -12 7 -10 4 2 7 -2 7
-10 0 -8 -3 -12 -7 -10 -4 2 -7 -12 -8 -32 -1 -20 -7 -40 -14 -45 -10 -6 -10
-8 1 -8 11 0 10 -4 -5 -16 -19 -15 -19 -16 0 -9 19 6 19 5 3 -13 -9 -10 -14
-22 -10 -27 5 -4 -1 -5 -12 -1 -16 6 -18 5 -7 -5 14 -15 16 -43 2 -34 -6 4
-10 -7 -10 -24 0 -18 -5 -31 -12 -31 -9 0 -8 -4 2 -10 10 -6 11 -10 3 -10 -7
0 -13 -9 -13 -20 0 -11 -4 -20 -10 -20 -5 0 -10 -5 -10 -11 0 -5 6 -7 13 -4 6
4 5 1 -4 -7 -9 -7 -15 -21 -13 -30 1 -10 -2 -18 -8 -18 -6 0 -7 -7 -4 -16 3
-8 2 -12 -4 -9 -9 6 -15 -8 -11 -29 1 -5 -4 -6 -12 -3 -10 4 -13 -2 -11 -19 1
-15 -3 -24 -12 -24 -8 0 -13 -3 -13 -7 1 -5 1 -17 0 -28 -1 -17 -3 -18 -11 -5
-7 11 -10 7 -10 -18 0 -20 -6 -35 -15 -38 -8 -4 -13 -10 -10 -14 3 -4 -2 -11
-11 -14 -9 -4 -14 -13 -10 -22 3 -8 2 -13 -3 -10 -5 3 -14 -1 -21 -9 -7 -8
-10 -15 -6 -15 3 0 -2 -8 -11 -18 -10 -11 -22 -17 -26 -14 -5 2 -7 -4 -5 -14
2 -11 -2 -18 -9 -16 -7 1 -13 -7 -13 -19 0 -11 -4 -18 -9 -15 -5 3 -15 -2 -22
-11 -12 -14 -12 -16 0 -8 10 5 12 4 7 -3 -4 -7 -14 -12 -22 -12 -8 0 -12 -4
-9 -10 3 -5 -1 -10 -10 -10 -9 0 -14 -4 -11 -9 3 -4 -6 -13 -19 -19 -14 -7
-25 -18 -25 -26 0 -7 -7 -17 -16 -20 -8 -3 -12 -11 -8 -17 4 -7 3 -9 -4 -5 -6
3 -16 -2 -22 -11 -11 -17 -11 -16 -5 1 4 15 -1 13 -23 -10 -16 -16 -27 -32
-25 -36 2 -5 -3 -8 -12 -8 -8 0 -18 -7 -21 -15 -4 -8 -10 -13 -14 -10 -5 3
-11 1 -15 -5 -4 -6 -11 -8 -16 -5 -5 3 -6 -1 -3 -10 4 -11 2 -14 -9 -10 -8 4
-21 -1 -30 -9 -9 -9 -24 -16 -34 -16 -15 0 -16 -2 -3 -10 13 -8 13 -10 -2 -10
-9 0 -19 -6 -21 -12 -4 -10 -8 -9 -16 2 -9 13 -11 12 -11 -3 0 -10 -5 -15 -11
-12 -10 7 -52 -29 -43 -37 4 -5 0 -6 -53 -9 -18 -1 -30 -6 -28 -10 7 -10 -32
-22 -44 -14 -5 3 -13 0 -17 -6 -5 -8 -3 -9 7 -4 8 5 11 4 6 -1 -9 -9 -14 -11
-48 -13 -13 -1 -18 -5 -13 -13 5 -8 0 -7 -11 2 -11 9 -16 10 -11 3 6 -12 -18
-19 -46 -14 -5 0 -8 -4 -8 -10 0 -8 -5 -7 -15 1 -13 11 -14 10 -10 -1 4 -11
-5 -14 -40 -14 -31 1 -44 -3 -41 -11 5 -12 -18 -13 -30 -1 -4 3 -12 3 -18 -1
-12 -8 -36 -10 -134 -11 -35 -1 -61 -5 -58 -9 3 -5 -1 -9 -9 -9 -8 0 -15 4
-15 9 0 4 -9 8 -21 8 -11 0 -18 -3 -16 -7 3 -5 -5 -8 -18 -8 -13 0 -21 3 -18
8 2 4 0 7 -6 7 -5 0 -12 -4 -16 -9 -3 -6 -16 -4 -32 4 -29 15 -48 11 -36 -8 4
-7 -1 -5 -11 3 -11 8 -33 13 -53 11 -26 -2 -33 1 -28 10 5 8 4 10 -4 5 -18
-12 -69 -18 -51 -7 8 5 19 7 25 4 5 -4 7 -2 2 2 -11 12 -57 13 -49 0 3 -5 -2
-4 -11 4 -9 7 -17 10 -17 7 0 -4 -9 -2 -20 4 -14 8 -20 8 -20 0 0 -6 -5 -8
-10 -5 -6 4 -8 10 -5 15 3 4 -6 7 -21 5 -14 -1 -32 4 -40 12 -8 9 -28 16 -45
17 -18 0 -28 5 -25 13 3 7 -4 10 -19 7 -15 -3 -27 2 -33 12 -6 11 -16 15 -26
11 -10 -4 -24 1 -36 13 -11 11 -20 17 -20 14 0 -4 -8 0 -17 7 -11 10 -14 10
-9 2 4 -7 2 -13 -3 -13 -6 0 -11 7 -11 16 0 8 -4 13 -9 9 -5 -3 -16 2 -24 10
-9 8 -21 15 -27 15 -6 0 -8 5 -5 10 3 6 -5 10 -18 10 -14 0 -27 7 -31 15 -3 8
-11 14 -18 13 -7 -2 -12 3 -10 10 1 8 -1 11 -6 8 -5 -3 -18 2 -28 10 -14 11
-15 17 -6 20 6 3 10 10 6 15 -3 5 2 9 11 9 9 0 13 5 10 10 -3 6 -1 10 4 10 6
0 11 9 11 20 0 11 5 20 11 20 5 0 7 -6 3 -12 -4 -8 -3 -9 2 -5 5 5 9 16 9 25
0 9 6 16 14 14 9 -2 11 3 7 13 -3 9 1 18 9 21 8 4 12 10 9 15 -3 5 0 9 5 9 6
0 11 6 11 13 0 8 9 22 20 32 11 10 20 23 19 29 -3 24 2 37 11 31 6 -4 10 5 10
20 0 14 7 28 16 32 8 3 13 12 10 19 -7 17 10 28 18 12 3 -7 3 -3 0 10 -4 15 0
24 10 28 9 3 16 10 16 16 0 5 -6 6 -12 2 -13 -8 4 17 30 44 6 7 12 18 12 25 0
6 -7 2 -16 -9 -14 -18 -14 -17 -2 6 7 14 11 28 10 33 -1 4 6 7 15 8 11 0 13 3
6 6 -10 3 -9 9 1 26 8 12 12 30 11 40 -2 9 1 15 6 11 5 -3 9 7 9 21 0 18 4 24
13 19 8 -5 8 -2 -2 9 -12 15 -11 17 3 17 9 0 16 5 16 11 0 5 -5 7 -11 3 -7 -4
-7 1 1 16 6 12 10 30 7 39 -2 10 2 26 9 36 8 10 14 34 14 52 0 26 3 31 18 27
14 -5 15 -4 2 5 -21 15 -22 51 -1 43 13 -5 14 -3 4 9 -6 8 -8 20 -4 27 4 7 7
31 5 53 -2 27 1 37 9 33 8 -5 8 -3 0 6 -10 11 -9 16 5 27 9 7 13 13 7 12 -24
-3 -28 2 -10 14 14 11 15 16 5 22 -9 6 -11 4 -5 -5 6 -9 4 -11 -5 -5 -10 6 -9
11 5 22 17 12 14 18 -7 14 -5 0 -8 4 -8 9 0 6 8 10 18 10 14 0 15 2 2 10 -8 5
-11 10 -6 10 5 0 3 7 -4 15 -11 13 -10 14 2 10 9 -4 15 0 15 9 0 8 -4 13 -8
11 -4 -3 -9 2 -12 10 -4 8 -1 12 6 9 15 -5 20 33 6 41 -5 4 -9 11 -9 16 0 6 4
8 9 5 13 -8 7 22 -7 36 -8 8 -7 15 6 25 9 8 12 12 5 9 -6 -4 -14 -2 -18 4 -3
5 0 10 7 10 9 0 9 3 2 8 -6 4 -10 26 -10 50 1 23 -3 42 -8 42 -5 0 -2 8 5 17
12 14 12 16 -1 11 -12 -4 -15 3 -16 33 0 21 4 35 9 32 5 -3 1 6 -8 21 -10 14
-14 26 -10 26 4 0 1 7 -6 16 -7 9 -12 29 -11 46 2 21 -1 27 -10 22 -9 -6 -9
-3 1 9 11 14 11 18 -3 23 -15 6 -15 8 1 20 17 13 17 14 1 8 -14 -5 -18 -1 -18
21 0 14 -4 24 -8 21 -4 -2 -9 10 -10 27 -2 18 -7 34 -12 35 -6 2 -10 11 -10
21 0 9 -6 23 -12 30 -8 9 -9 12 -1 7 13 -7 12 19 -2 31 -4 4 -5 2 0 -6 5 -9 4
-12 -3 -7 -7 4 -12 14 -12 22 0 10 5 12 13 8 6 -5 0 7 -16 25 -15 18 -25 37
-21 42 3 5 1 9 -5 9 -6 0 -8 6 -5 13 3 8 -3 20 -13 28 -17 13 -17 13 -3 -6 14
-19 14 -19 -2 -6 -10 7 -16 17 -13 21 3 5 -2 16 -11 25 -9 9 -16 27 -16 40 0
14 -4 22 -9 19 -5 -3 -9 2 -9 10 0 9 -4 16 -10 16 -5 0 -10 7 -10 15 0 8 -4
15 -10 15 -5 0 -6 7 -3 17 5 12 3 14 -7 8 -10 -6 -12 -4 -7 9 5 11 3 15 -5 10
-8 -5 -9 -2 -4 11 6 16 4 16 -11 4 -9 -8 -14 -9 -10 -2 4 6 0 18 -8 26 -8 9
-15 20 -15 26 0 6 -4 11 -8 11 -8 0 -42 53 -42 65 0 4 7 2 16 -5 8 -8 14 -9
13 -4 -1 5 -1 16 0 24 1 13 2 13 11 0 8 -13 10 -12 10 3 0 10 4 16 9 12 6 -3
13 1 18 9 8 15 11 16 41 16 14 0 15 2 2 10 -12 8 -9 10 12 10 20 0 26 4 22 15
-4 10 0 13 15 10 14 -2 21 1 21 11 0 8 4 13 8 10 5 -3 21 2 36 10 16 7 37 14
47 14 11 0 22 6 25 13 3 8 18 13 35 12 16 -1 33 3 36 8 3 6 1 7 -5 3 -6 -3
-14 -2 -17 4 -4 6 -3 10 2 9 29 -5 53 2 47 14 -5 7 0 6 11 -3 11 -9 16 -10 11
-2 -6 10 16 16 50 11 4 0 10 5 15 12 4 7 31 14 60 15 29 2 55 7 58 12 3 6 37
10 76 10 49 0 71 4 74 13 3 11 5 11 9 2 2 -7 10 -13 18 -13z m-5896 -643 c0
-10 5 -15 10 -12 6 3 10 1 10 -4 0 -6 -6 -11 -12 -12 -7 0 -2 -4 10 -10 13 -5
26 -18 29 -29 3 -11 9 -20 14 -20 5 0 9 -5 9 -11 0 -5 -6 -7 -12 -3 -7 4 -3
-3 10 -15 12 -12 20 -26 17 -32 -4 -5 -1 -9 5 -9 6 0 8 -4 5 -10 -3 -5 -1 -10
5 -10 7 0 9 -7 6 -16 -3 -8 -2 -13 3 -10 11 7 23 -22 14 -36 -3 -7 -1 -8 5 -4
8 5 12 0 12 -13 0 -12 5 -21 11 -21 8 0 7 -5 -1 -15 -11 -13 -10 -14 4 -9 12
5 15 2 9 -12 -4 -10 -2 -15 4 -11 5 3 10 1 11 -6 7 -63 16 -108 23 -113 5 -3
6 3 3 13 -5 14 -4 15 4 4 6 -8 6 -25 2 -41 -4 -16 -4 -33 2 -41 7 -10 8 -9 3
6 -5 16 -4 17 6 8 10 -10 9 -15 -1 -28 -10 -13 -9 -15 6 -15 16 0 17 -2 4 -10
-10 -6 -11 -10 -2 -10 6 0 12 -9 12 -21 0 -13 -4 -18 -12 -13 -7 4 -3 -4 9
-17 30 -33 30 -34 14 -52 -11 -14 -11 -17 0 -17 11 0 11 -2 -1 -10 -10 -6 -11
-10 -2 -10 9 0 12 -32 12 -126 0 -97 -3 -124 -12 -118 -9 5 -9 2 1 -9 11 -14
11 -20 0 -34 -10 -11 -10 -14 -1 -9 6 4 12 2 12 -3 0 -6 -5 -11 -11 -11 -6 0
-9 -14 -8 -32 2 -22 -1 -32 -9 -30 -10 2 -10 -2 0 -18 11 -16 9 -22 -7 -35
-17 -12 -17 -14 -2 -9 13 5 16 2 11 -10 -3 -9 -11 -13 -18 -9 -7 4 -6 1 1 -7
10 -11 9 -18 -5 -34 -9 -11 -12 -16 -5 -13 7 5 9 0 6 -13 -3 -11 -9 -18 -12
-15 -4 2 -8 -2 -8 -10 0 -8 4 -12 9 -9 4 3 8 1 8 -5 0 -5 -4 -11 -10 -13 -5
-1 -10 -18 -12 -35 -1 -18 -8 -33 -15 -33 -6 0 -10 -9 -8 -20 2 -11 0 -20 -5
-20 -8 0 -29 -46 -40 -90 -3 -14 -11 -24 -17 -23 -5 1 -9 -9 -7 -23 1 -13 -1
-22 -6 -19 -9 6 -20 -19 -20 -46 0 -11 -4 -17 -10 -14 -5 3 -10 -1 -10 -10 0
-9 -4 -13 -10 -10 -5 3 -7 0 -5 -8 3 -7 -8 -28 -25 -45 -16 -18 -25 -32 -18
-32 17 0 4 -10 -20 -15 -12 -2 -21 -1 -21 3 3 20 -2 25 -12 12 -8 -12 -9 -10
-7 10 2 14 -2 24 -8 23 -5 -1 -16 7 -23 19 -7 11 -8 17 -2 13 6 -3 11 -1 11 4
0 6 -7 11 -15 11 -9 0 -15 9 -15 23 0 18 -2 19 -10 7 -8 -12 -10 -8 -11 15 -1
17 -1 34 0 39 1 5 -4 4 -12 -2 -11 -10 -13 -6 -12 19 1 20 -2 28 -10 25 -7 -2
-12 4 -11 17 0 12 -4 21 -10 20 -6 -1 -11 8 -11 20 0 30 -13 58 -24 51 -5 -3
-6 2 -3 10 3 9 1 16 -6 16 -6 0 -9 4 -5 9 3 5 1 12 -5 16 -5 3 -10 22 -10 41
0 19 -4 34 -9 34 -5 0 -9 21 -9 47 -1 25 -6 49 -12 53 -6 3 -11 22 -13 41 -2
19 -7 40 -11 48 -7 10 -5 12 5 6 12 -8 12 -6 0 8 -10 13 -10 17 -1 17 10 0 9
4 -1 16 -15 19 -21 47 -8 38 5 -3 6 -10 3 -16 -5 -7 -2 -8 5 -4 9 6 9 12 -2
24 -21 24 -21 236 -1 268 12 17 12 24 3 30 -7 4 -9 3 -6 -2 3 -6 2 -16 -3 -23
-5 -9 -7 -3 -7 17 1 17 5 28 8 26 11 -7 18 22 9 37 -5 7 -5 18 0 24 5 6 8 21
5 33 -2 12 1 24 6 27 5 4 6 11 3 17 -5 7 -2 8 6 3 10 -6 12 0 8 24 -2 17 -1
31 4 31 5 0 6 5 3 10 -4 6 -2 17 5 25 6 7 12 31 13 53 1 28 5 38 14 35 9 -4
11 0 6 13 -4 12 -3 15 5 10 8 -5 10 -1 5 10 -5 13 -3 15 8 9 11 -7 11 -5 -1
10 -10 13 -11 16 -2 11 9 -6 12 -3 10 10 -2 12 2 18 11 16 12 -3 12 -1 0 14
-9 12 -9 15 -1 10 7 -4 12 -1 12 8 0 9 5 16 11 16 5 0 8 4 5 9 -6 10 16 61 27
61 4 0 7 11 7 25 0 16 6 25 16 25 8 0 12 5 9 10 -3 6 1 13 9 16 9 3 13 10 10
15 -3 5 0 9 6 9 6 0 8 5 5 10 -3 6 -1 10 4 10 6 0 11 7 11 16 0 9 5 12 12 8 8
-5 9 -2 5 10 -4 10 -3 15 3 11 6 -3 10 -1 10 4 0 7 7 7 20 -1 11 -7 20 -21 20
-31z m2406 13 c3 -23 5 -24 15 -10 9 13 10 13 8 0 -3 -32 1 -51 11 -45 6 4 10
-5 10 -20 0 -15 4 -24 10 -20 9 6 14 -11 13 -43 -1 -10 2 -10 14 -1 8 7 13 8
12 3 -4 -23 2 -45 11 -39 6 4 10 -5 10 -20 0 -14 6 -28 14 -31 9 -4 13 -16 11
-36 -4 -24 -2 -28 9 -19 11 9 14 9 13 -1 -1 -41 4 -59 16 -52 7 5 7 2 -2 -10
-12 -15 -12 -17 0 -14 8 2 13 -3 11 -10 -1 -7 3 -22 9 -34 8 -15 8 -18 0 -14
-6 4 -11 2 -11 -3 0 -6 6 -11 14 -11 9 0 13 -10 12 -30 -2 -30 8 -41 17 -17 2
6 3 -6 2 -28 -1 -22 5 -51 13 -64 10 -17 11 -26 3 -34 -6 -6 -11 -16 -11 -21
0 -6 5 -4 10 4 10 16 13 -7 12 -108 -1 -29 3 -50 7 -48 4 3 8 -1 8 -9 0 -8 -4
-12 -9 -9 -4 3 -8 0 -8 -5 0 -6 6 -11 13 -12 8 0 8 -2 -2 -6 -11 -5 -11 -7 0
-14 12 -8 11 -11 -1 -19 -12 -8 -13 -11 -1 -19 9 -6 10 -11 2 -15 -6 -4 -11
-13 -11 -19 0 -7 4 -6 11 3 9 12 9 11 3 -5 -7 -19 -11 -68 -13 -163 -1 -26 -5
-41 -11 -37 -9 5 -16 -59 -11 -89 1 -5 -3 -12 -9 -16 -6 -4 -12 -18 -12 -31
-1 -13 -6 -29 -11 -36 -5 -7 -5 -18 -1 -24 4 -8 3 -9 -4 -5 -8 5 -12 -1 -12
-17 0 -14 -6 -27 -14 -30 -9 -3 -12 -15 -9 -31 3 -14 1 -26 -5 -26 -5 0 -13
-7 -16 -16 -6 -15 -4 -15 11 -3 16 12 16 11 0 -8 -11 -12 -16 -27 -12 -32 3
-6 -1 -14 -9 -17 -9 -3 -16 -13 -16 -20 0 -20 -30 -65 -39 -59 -4 2 -8 -2 -8
-10 0 -8 5 -12 11 -9 6 3 2 -3 -10 -13 -22 -19 -24 -24 -24 -50 0 -9 -3 -13
-6 -10 -9 9 -45 -39 -42 -54 2 -7 -9 -14 -24 -15 -21 -2 -26 1 -21 14 3 9 2
14 -2 10 -10 -9 -46 46 -48 73 -1 10 -5 17 -10 16 -5 -1 -11 7 -13 18 -1 11
-8 21 -13 23 -6 2 -11 13 -11 23 0 11 -4 17 -10 14 -9 -5 -15 15 -11 38 0 4
-5 7 -13 7 -8 0 -14 6 -13 13 1 36 -4 57 -13 52 -6 -4 -10 7 -10 24 0 17 -5
31 -11 31 -6 0 -9 9 -6 20 3 11 0 23 -5 27 -7 4 -8 1 -3 -7 5 -9 4 -11 -3 -6
-9 5 -9 13 -2 26 8 15 7 18 -3 14 -10 -3 -13 4 -12 30 0 19 -2 34 -5 34 -18
-2 -23 4 -10 12 10 6 11 10 3 10 -8 0 -13 13 -13 30 0 17 -4 30 -10 30 -5 0
-10 21 -10 48 0 26 -1 55 -1 65 0 9 -6 17 -12 17 -7 0 -6 4 3 10 13 9 13 11 1
19 -12 8 -12 12 -2 25 11 12 11 16 1 16 -9 0 -9 4 1 17 8 9 9 14 3 10 -7 -4
-14 0 -17 8 -4 8 -1 12 7 9 7 -3 12 5 12 21 0 17 -4 24 -13 21 -7 -3 -13 -1
-13 4 0 6 8 10 18 10 14 0 15 2 2 10 -13 9 -13 11 0 20 12 8 12 10 1 10 -9 0
-10 4 -4 13 8 10 10 51 3 60 -7 9 -7 36 1 31 13 -8 11 10 -3 25 -11 11 -10 12
1 6 11 -6 13 -1 9 25 -3 22 0 34 9 37 12 5 12 7 1 14 -10 7 -11 12 0 29 6 11
12 34 12 50 0 22 4 29 13 24 7 -5 6 0 -3 11 -9 11 -10 16 -2 11 12 -7 14 -1
15 42 0 14 5 21 12 19 6 -3 12 1 12 9 0 7 -4 11 -9 8 -4 -3 -8 -1 -8 5 0 5 4
11 9 13 5 2 11 10 13 18 2 8 6 17 10 20 4 3 8 22 10 42 1 20 6 34 10 32 5 -3
5 -10 2 -16 -4 -6 -3 -8 3 -5 5 3 9 20 8 37 -1 21 3 30 14 30 14 0 14 2 1 10
-12 8 -12 10 3 16 9 3 14 10 11 15 -3 5 0 9 5 9 6 0 11 9 11 21 0 13 5 19 13
16 9 -3 13 3 13 17 -1 11 4 20 9 19 6 -1 12 10 13 25 1 15 8 32 15 37 8 6 12
16 10 23 -3 7 1 10 11 6 10 -4 16 -1 16 9 0 29 42 26 46 -3z m2398 5 c-4 -10
0 -15 11 -15 9 0 13 -4 10 -10 -3 -5 2 -10 12 -10 15 0 16 -2 3 -10 -13 -8
-12 -10 3 -10 11 0 15 -4 11 -12 -4 -6 -1 -16 7 -22 20 -16 50 -72 42 -80 -3
-3 1 -6 9 -6 11 0 15 -8 14 -25 -2 -13 0 -22 4 -20 11 7 22 -24 13 -38 -4 -6
0 -8 10 -4 11 4 15 1 12 -13 -2 -11 2 -26 10 -34 8 -7 11 -16 8 -20 -4 -3 -1
-6 6 -6 7 0 9 -5 6 -11 -4 -6 1 -16 11 -24 16 -11 17 -15 4 -31 -9 -11 -10
-15 -2 -10 12 7 17 -10 13 -43 -2 -7 2 -10 8 -6 7 3 11 -2 11 -14 0 -10 -6
-22 -12 -24 -9 -4 -7 -6 3 -6 12 -1 15 -8 11 -27 -3 -16 1 -30 9 -35 12 -7 11
-9 -1 -9 -12 -1 -12 -2 2 -10 11 -7 15 -21 14 -45 -2 -20 1 -35 7 -35 7 0 7
-4 -1 -12 -9 -9 -7 -15 6 -25 9 -8 11 -12 5 -8 -8 4 -13 0 -13 -10 0 -9 4 -14
8 -11 10 6 9 -50 -1 -60 -4 -4 -7 -12 -7 -18 0 -6 5 -4 10 4 8 13 10 12 10 -3
0 -10 -7 -20 -15 -23 -8 -4 -12 -11 -9 -16 4 -6 10 -5 15 3 7 11 9 11 9 -1 0
-9 -6 -22 -12 -29 -10 -11 -10 -12 -1 -7 18 10 10 -78 -8 -101 -12 -15 -12
-16 4 -10 15 6 16 4 5 -16 -6 -12 -13 -44 -14 -72 -3 -69 -2 -67 -16 -59 -8 5
-7 0 2 -11 8 -10 10 -16 4 -12 -7 4 -11 -5 -12 -25 0 -17 -7 -35 -14 -39 -7
-5 -8 -9 -2 -9 6 0 11 -7 11 -15 0 -8 -4 -12 -9 -9 -5 4 -9 0 -7 -7 4 -34 -2
-70 -11 -64 -5 3 -11 0 -12 -7 0 -7 -2 -17 -3 -23 -2 -5 -3 -16 -4 -23 0 -7
-6 -10 -13 -6 -6 4 -8 3 -4 -4 3 -6 2 -14 -4 -17 -6 -4 -8 -15 -5 -24 3 -10
-1 -24 -10 -31 -8 -7 -12 -16 -9 -21 3 -5 0 -9 -6 -9 -7 0 -9 -7 -6 -16 3 -8
2 -12 -4 -9 -6 3 -10 -1 -10 -10 0 -10 -5 -13 -12 -9 -8 5 -7 0 2 -11 9 -11
10 -16 3 -11 -9 5 -13 0 -13 -13 0 -12 -4 -21 -10 -21 -5 0 -10 -9 -10 -20 0
-11 -7 -20 -15 -20 -8 0 -14 -6 -13 -12 2 -7 -2 -12 -9 -11 -7 2 -10 -4 -7
-12 4 -8 1 -15 -5 -15 -6 0 -8 -7 -4 -15 3 -10 0 -15 -8 -13 -8 2 -13 -3 -11
-9 1 -7 -5 -13 -13 -13 -8 0 -15 5 -15 11 0 5 -4 7 -10 4 -5 -3 -10 3 -10 14
0 11 -5 23 -12 27 -7 5 -8 3 -3 -6 5 -8 4 -11 -3 -6 -6 3 -9 15 -7 26 2 11 -1
23 -7 26 -7 5 -8 2 -3 -6 5 -9 4 -11 -3 -6 -7 4 -12 13 -12 21 0 7 -5 15 -10
17 -6 2 -12 13 -13 25 0 12 -5 19 -9 17 -7 -5 -12 13 -11 43 0 7 -4 11 -10 10
-7 -1 -13 8 -15 21 -2 12 -8 22 -13 22 -5 0 -9 11 -9 24 0 13 -5 26 -10 28 -6
2 -12 13 -13 26 0 12 -7 22 -14 22 -7 0 -13 5 -13 11 0 5 5 7 12 3 7 -5 8 -3
2 7 -4 8 -10 23 -11 34 -2 11 -8 22 -13 23 -6 2 -10 8 -10 13 0 6 6 7 13 4 6
-4 5 -1 -3 7 -9 7 -14 21 -12 32 2 10 -2 22 -10 27 -10 7 -10 9 2 9 12 1 11 3
-3 11 -9 6 -15 15 -11 21 4 6 10 5 15 -3 6 -10 9 -10 9 -2 0 7 -8 16 -17 22
-10 5 -15 13 -11 17 5 4 2 14 -4 22 -15 17 -20 44 -7 36 5 -3 9 2 9 11 0 9 -4
13 -10 10 -14 -9 -11 393 3 416 8 13 7 21 -3 33 -11 14 -11 16 2 11 10 -4 14
2 14 22 -1 15 4 27 9 26 6 -1 10 13 11 30 3 82 5 98 12 93 8 -4 12 14 15 60 1
13 6 20 14 17 8 -3 12 4 10 24 -1 15 3 27 8 26 6 -1 12 13 13 30 2 18 7 34 12
35 6 2 10 10 10 18 0 8 5 14 11 14 6 0 8 7 5 16 -4 10 -2 13 6 8 7 -5 9 1 6
20 -5 23 -3 24 10 14 13 -11 14 -11 8 0 -4 7 5 28 25 53 17 22 29 42 26 45 -3
3 3 14 14 25 11 11 18 23 15 27 -2 4 6 9 19 10 18 1 23 -2 19 -13z m3079 -400
c-3 -9 -8 -14 -10 -11 -3 3 -2 9 2 15 9 16 15 13 8 -4z m-5796 -380 c0 -8 -4
-12 -9 -9 -5 3 -6 10 -3 15 9 13 12 11 12 -6z m3443 -25 c0 -5 -2 -10 -4 -10
-3 0 -8 5 -11 10 -3 6 -1 10 4 10 6 0 11 -4 11 -10z m-4933 -682 c-3 -8 -6 -5
-6 6 -1 11 2 17 5 13 3 -3 4 -12 1 -19z m-3637 -88 c0 -5 -2 -10 -4 -10 -3 0
-8 5 -11 10 -3 6 -1 10 4 10 6 0 11 -4 11 -10z m7380 -1076 c0 -8 -19 -13 -24
-6 -3 5 1 9 9 9 8 0 15 -2 15 -3z m-6000 -100 c0 -8 -19 -13 -24 -6 -3 5 1 9
9 9 8 0 15 -2 15 -3z"/>
<path d="M5530 7059 c0 -5 5 -7 10 -4 6 3 10 8 10 11 0 2 -4 4 -10 4 -5 0 -10
-5 -10 -11z"/>
<path d="M6635 5899 c-4 -6 -5 -12 -2 -15 2 -3 7 2 10 11 7 17 1 20 -8 4z"/>
<path d="M6635 5809 c-4 -6 -5 -12 -2 -15 2 -3 7 2 10 11 7 17 1 20 -8 4z"/>
<path d="M8986 6335 c4 -8 8 -15 10 -15 2 0 4 7 4 15 0 8 -4 15 -10 15 -5 0
-7 -7 -4 -15z"/>
<path d="M8985 5440 c-3 -5 -1 -10 4 -10 6 0 11 5 11 10 0 6 -2 10 -4 10 -3 0
-8 -4 -11 -10z"/>
<path d="M10765 5100 c-3 -5 -1 -10 4 -10 6 0 11 5 11 10 0 6 -2 10 -4 10 -3
0 -8 -4 -11 -10z"/>
<path d="M3195 5809 c-4 -6 -5 -12 -2 -15 2 -3 7 2 10 11 7 17 1 20 -8 4z"/>
<path d="M5831 6684 c0 -11 3 -14 6 -6 3 7 2 16 -1 19 -3 4 -6 -2 -5 -13z"/>
<path d="M5621 5614 c0 -11 3 -14 6 -6 3 7 2 16 -1 19 -3 4 -6 -2 -5 -13z"/>
<path d="M8505 6360 c3 -5 8 -10 11 -10 2 0 4 5 4 10 0 6 -5 10 -11 10 -5 0
-7 -4 -4 -10z"/>
<path d="M8575 5820 c3 -5 8 -10 11 -10 2 0 4 5 4 10 0 6 -5 10 -11 10 -5 0
-7 -4 -4 -10z"/>
<path d="M3625 4240 c3 -5 8 -10 11 -10 2 0 4 5 4 10 0 6 -5 10 -11 10 -5 0
-7 -4 -4 -10z"/>
<path d="M7535 3980 c3 -5 8 -10 11 -10 2 0 4 5 4 10 0 6 -5 10 -11 10 -5 0
-7 -4 -4 -10z"/>
<path d="M9835 3960 c-3 -5 -1 -10 4 -10 6 0 11 5 11 10 0 6 -2 10 -4 10 -3 0
-8 -4 -11 -10z"/>
</g>
</svg>
